<?xml version="1.0" encoding="utf-8"?>
<!-- Generator: Adobe Illustrator 22.1.0, SVG Export Plug-In . SVG Version: 6.00 Build 0)  -->
<svg version="1.1" xmlns="http://www.w3.org/2000/svg" xmlns:xlink="http://www.w3.org/1999/xlink" x="0px" y="0px"
	 viewBox="0 0 101.5 157.2" style="enable-background:new 0 0 101.5 157.2;" xml:space="preserve">
<style type="text/css">
	.st0{fill:#FFFFFF;}
	.st1{fill:#3F7E44;}
</style>
<g id="WHITE_BG">
	<rect class="st0" width="101.5" height="157.2"/>
</g>
<g id="TARGETS">
	<g>
		<path class="st1" d="M7,132.2v-6.4h1v6.4H7z"/>
		<path class="st1" d="M12.5,131.3h-0.9l-1.6-3.9l0,4.8h-1v-6.4h1.2l1.7,4.3l1.7-4.3H15v6.4h-1l0-4.8L12.5,131.3z"/>
		<path class="st1" d="M16.9,132.2h-1v-6.4h2c1.6,0,2.2,1,2.2,2c0,1-0.6,2-2.2,2h-1.1V132.2z M16.9,128.9H18c1,0,1.1-0.6,1.1-1.1
			c0-0.5-0.2-1.1-1.1-1.1h-1.1V128.9z"/>
		<path class="st1" d="M21.7,131.3h2.8v0.9h-3.7v-6.4h1V131.3z"/>
		<path class="st1" d="M28.7,129.3h-2.7v2H29v0.9h-3.9v-6.4H29v0.9h-2.9v1.8h2.7V129.3z"/>
		<path class="st1" d="M33.2,131.3h-0.9l-1.6-3.9l0,4.8h-1v-6.4h1.2l1.7,4.3l1.7-4.3h1.2v6.4h-1l0-4.8L33.2,131.3z"/>
		<path class="st1" d="M40.3,129.3h-2.7v2h2.9v0.9h-3.9v-6.4h3.9v0.9h-2.9v1.8h2.7V129.3z"/>
		<path class="st1" d="M45.1,132.2l-2.8-4.5l0,4.5h-0.9v-6.4h0.9l2.8,4.5l0-4.5H46v6.4H45.1z"/>
		<path class="st1" d="M49.2,126.7v5.5h-1v-5.5h-1.7v-0.9h4.3v0.9H49.2z"/>
		<path class="st1" d="M55.2,129.3h-2.7v2h2.9v0.9h-3.9v-6.4h3.9v0.9h-2.9v1.8h2.7V129.3z"/>
		<path class="st1" d="M57.2,132.2h-1v-6.4h2.1c1.6,0,2.2,0.7,2.2,1.9c0,0.8-0.3,1.4-1,1.7l1.3,2.8h-1.1l-1.2-2.6h-1.3V132.2z
			 M57.2,128.7h1.3c0.9,0,1-0.5,1-1c0-0.5-0.1-1-1-1h-1.3V128.7z"/>
		<path class="st1" d="M64.7,130.6h-2l-0.5,1.6h-1l2-6.5h1l2,6.5h-1L64.7,130.6z M63.7,127l-0.8,2.8h1.6L63.7,127z"/>
		<path class="st1" d="M72,129.4h-2.6v2.8h-1v-6.4h3.8v0.9h-2.9v1.8H72V129.4z"/>
		<path class="st1" d="M76.7,132.2l-2.8-4.5l0,4.5H73v-6.4h0.9l2.8,4.5l0-4.5h0.9v6.4H76.7z"/>
		<path class="st1" d="M78.9,128.4c0.3,0,0.6,0.3,0.6,0.6s-0.3,0.6-0.6,0.6s-0.6-0.3-0.6-0.6S78.6,128.4,78.9,128.4z M78.9,131.1
			c0.3,0,0.6,0.3,0.6,0.6s-0.3,0.6-0.6,0.6s-0.6-0.3-0.6-0.6S78.6,131.1,78.9,131.1z"/>
		<path class="st1" d="M84.4,130.3c0,1.2-0.7,2-2.4,2c-0.6,0-1.5-0.1-1.9-0.4v-1c0.3,0.2,1,0.4,1.8,0.4c1.1,0,1.5-0.5,1.5-1.1
			c0-0.7-0.3-0.9-1.2-1c-1.6-0.2-2.2-0.6-2.2-1.8c0-0.9,0.5-1.8,2.3-1.8c0.8,0,1.4,0.1,1.7,0.3v0.9c-0.5-0.2-1-0.3-1.7-0.3
			c-1,0-1.3,0.4-1.3,1c0,0.7,0.4,0.8,1.2,0.9C83.7,128.7,84.4,129,84.4,130.3z"/>
		<path class="st1" d="M7.8,141.2h-1v-6.4H9c1.6,0,2.2,0.7,2.2,1.9c0,0.8-0.3,1.4-1,1.7l1.3,2.8h-1.1l-1.2-2.6H7.8V141.2z
			 M7.8,137.7h1.3c0.9,0,1-0.5,1-1c0-0.5-0.1-1-1-1H7.8V137.7z"/>
		<path class="st1" d="M15.3,139.6h-2l-0.5,1.6h-1l2-6.5h1l2,6.5h-1L15.3,139.6z M14.3,136l-0.8,2.8h1.6L14.3,136z"/>
		<path class="st1" d="M20.8,140.3h-0.9l-1.6-3.9l0,4.8h-1v-6.4h1.2l1.7,4.3l1.7-4.3h1.2v6.4h-1l0-4.8L20.8,140.3z"/>
		<path class="st1" d="M25.7,138.4l-0.5,0.6l0,2.2h-1v-6.4h1l0,3l2.3-3h1.2l-2.3,2.8l2.6,3.6h-1.2L25.7,138.4z"/>
		<path class="st1" d="M29.1,138c0-1.8,0.4-3.3,2.5-3.3c2,0,2.5,1.5,2.5,3.3s-0.4,3.3-2.5,3.3C29.5,141.3,29.1,139.8,29.1,138z
			 M30.1,138c0,1.5,0.3,2.4,1.5,2.4s1.5-0.9,1.5-2.4s-0.3-2.4-1.5-2.4S30.1,136.5,30.1,138z"/>
		<path class="st1" d="M38.5,141.2l-2.8-4.5l0,4.5h-0.9v-6.4h0.9l2.8,4.5l0-4.5h0.9v6.4H38.5z"/>
		<path class="st1" d="M45.1,134.8l-2,6.5h-1l-2-6.5h1l1.5,5.2l1.5-5.2H45.1z"/>
		<path class="st1" d="M49.3,138.3h-2.7v2h2.9v0.9h-3.9v-6.4h3.9v0.9h-2.9v1.8h2.7V138.3z"/>
		<path class="st1" d="M54.1,141.2l-2.8-4.5l0,4.5h-0.9v-6.4h0.9l2.8,4.5l0-4.5H55v6.4H54.1z"/>
		<path class="st1" d="M58.3,135.7v5.5h-1v-5.5h-1.7v-0.9h4.3v0.9H58.3z"/>
		<path class="st1" d="M60.7,141.2v-6.4h1v6.4H60.7z"/>
		<path class="st1" d="M62.7,138c0-1.8,0.4-3.3,2.5-3.3c2,0,2.5,1.5,2.5,3.3s-0.4,3.3-2.5,3.3C63.1,141.3,62.7,139.8,62.7,138z
			 M63.7,138c0,1.5,0.3,2.4,1.5,2.4c1.2,0,1.5-0.9,1.5-2.4s-0.3-2.4-1.5-2.4C63.9,135.6,63.7,136.5,63.7,138z"/>
		<path class="st1" d="M72.1,141.2l-2.8-4.5l0,4.5h-0.9v-6.4h0.9l2.8,4.5l0-4.5H73v6.4H72.1z"/>
		<path class="st1" d="M75.5,138c0-1.8,0.4-3.3,2.5-3.3c2,0,2.5,1.5,2.5,3.3s-0.4,3.3-2.5,3.3C75.9,141.3,75.5,139.8,75.5,138z
			 M76.5,138c0,1.5,0.3,2.4,1.5,2.4s1.5-0.9,1.5-2.4s-0.3-2.4-1.5-2.4S76.5,136.5,76.5,138z"/>
		<path class="st1" d="M84.7,140.3h-0.9l-1.6-3.9l0,4.8h-1v-6.4h1.2l1.7,4.3l1.7-4.3h1.2v6.4h-1l0-4.8L84.7,140.3z"/>
		<path class="st1" d="M8.3,147.4L7.8,148l0,2.2h-1v-6.4h1l0,3l2.3-3h1.2L9,146.7l2.6,3.6h-1.2L8.3,147.4z"/>
		<path class="st1" d="M13.1,149.3h2.8v0.9h-3.7v-6.4h1V149.3z"/>
		<path class="st1" d="M16.6,150.2v-6.4h1v6.4H16.6z"/>
		<path class="st1" d="M22,149.3h-0.9l-1.6-3.9l0,4.8h-1v-6.4h1.2l1.7,4.3l1.7-4.3h1.2v6.4h-1l0-4.8L22,149.3z"/>
		<path class="st1" d="M28.7,148.6h-2l-0.5,1.6h-1l2-6.5h1l2,6.5h-1L28.7,148.6z M27.7,145l-0.8,2.8h1.6L27.7,145z"/>
		<path class="st1" d="M32.4,144.7v5.5h-1v-5.5h-1.7v-0.9H34v0.9H32.4z"/>
		<path class="st1" d="M38.2,147.4h-2.6v2.8h-1v-6.4h3.8v0.9h-2.9v1.8h2.6V147.4z"/>
		<path class="st1" d="M39.1,147c0-1.8,0.4-3.3,2.5-3.3c2,0,2.5,1.5,2.5,3.3s-0.4,3.3-2.5,3.3C39.5,150.3,39.1,148.8,39.1,147z
			 M40.7,142.4c0.3,0,0.6,0.3,0.6,0.6s-0.3,0.6-0.6,0.6c-0.3,0-0.6-0.3-0.6-0.6S40.4,142.4,40.7,142.4z M40.1,147
			c0,1.5,0.3,2.4,1.5,2.4s1.5-0.9,1.5-2.4s-0.3-2.4-1.5-2.4S40.1,145.5,40.1,147z M42.5,142.4c0.3,0,0.6,0.3,0.6,0.6
			s-0.3,0.6-0.6,0.6c-0.3,0-0.6-0.3-0.6-0.6S42.2,142.4,42.5,142.4z"/>
		<path class="st1" d="M45.9,150.2h-1v-6.4H47c1.6,0,2.2,0.7,2.2,1.9c0,0.8-0.3,1.4-1,1.7l1.3,2.8h-1.1l-1.2-2.6h-1.3V150.2z
			 M45.9,146.7h1.3c0.9,0,1-0.5,1-1c0-0.5-0.1-1-1-1h-1.3V146.7z"/>
		<path class="st1" d="M53.3,148.6h-2l-0.5,1.6h-1l2-6.5h1l2,6.5h-1L53.3,148.6z M51.4,142.4c0.3,0,0.6,0.3,0.6,0.6
			s-0.3,0.6-0.6,0.6c-0.3,0-0.6-0.3-0.6-0.6S51.1,142.4,51.4,142.4z M52.3,145l-0.8,2.8h1.6L52.3,145z M53.2,142.4
			c0.3,0,0.6,0.3,0.6,0.6s-0.3,0.6-0.6,0.6c-0.3,0-0.6-0.3-0.6-0.6S52.9,142.4,53.2,142.4z"/>
		<path class="st1" d="M59.2,150.2l-2.8-4.5l0,4.5h-0.9v-6.4h0.9l2.8,4.5l0-4.5H60v6.4H59.2z"/>
		<path class="st1" d="M61,150.2v-6.4h1.9c2.1,0,2.7,1.4,2.7,3.2s-0.6,3.2-2.7,3.2H61z M61.9,149.3h1c1.3,0,1.7-0.9,1.7-2.3
			s-0.4-2.3-1.7-2.3h-1V149.3z"/>
		<path class="st1" d="M67.4,150.2h-1v-6.4h2.1c1.6,0,2.2,0.7,2.2,1.9c0,0.8-0.3,1.4-1,1.7l1.3,2.8h-1.1l-1.2-2.6h-1.3V150.2z
			 M67.4,146.7h1.3c0.9,0,1-0.5,1-1c0-0.5-0.1-1-1-1h-1.3V146.7z"/>
		<path class="st1" d="M71.7,150.2v-6.4h1v6.4H71.7z"/>
		<path class="st1" d="M77.5,150.2l-2.8-4.5l0,4.5h-0.9v-6.4h0.9l2.8,4.5l0-4.5h0.9v6.4H77.5z"/>
		<path class="st1" d="M79.2,147c0-2,0.7-3.3,2.6-3.3c0.9,0,1.5,0.2,1.8,0.3v0.9c-0.6-0.2-1.1-0.4-1.7-0.4c-1.3,0-1.8,0.9-1.8,2.4
			c0,1.6,0.5,2.4,1.8,2.4c0.4,0,0.7-0.1,0.9-0.1v-1.7h-1.1v-0.9h2.1v3.2c-0.3,0.2-1.1,0.4-2,0.4C79.9,150.3,79.2,149,79.2,147z"/>
		<path class="st1" d="M87.9,148.6h-2l-0.5,1.6h-1l2-6.5h1l2,6.5h-1L87.9,148.6z M86.9,145l-0.8,2.8h1.6L86.9,145z"/>
		<path class="st1" d="M91,150.2h-1v-6.4h2.1c1.6,0,2.2,0.7,2.2,1.9c0,0.8-0.3,1.4-1,1.7l1.3,2.8h-1.1l-1.2-2.6H91V150.2z M91,146.7
			h1.3c0.9,0,1-0.5,1-1c0-0.5-0.1-1-1-1H91V146.7z"/>
	</g>
	<rect x="3.3" y="24" class="st1" width="94.8" height="94.8"/>
	<path class="st1" d="M98.2,20.7H3.3V3.3h94.8V20.7z M4.3,19.7h92.8V4.3H4.3V19.7z"/>
	<g>
		<path class="st1" d="M11.7,10.2v4.4c0,1.5-0.6,2.5-2.3,2.5H6.9V7.6h2.5C11.1,7.6,11.7,8.7,11.7,10.2z M9.2,15.8
			c0.7,0,0.9-0.4,0.9-1v-5c0-0.6-0.3-1-0.9-1H8.5v6.9H9.2z"/>
		<path class="st1" d="M12.7,7.6h3.8v1.3h-2.2v2.7h1.6v1.3h-1.6v2.9h2.2v1.3h-3.8V7.6z"/>
		<path class="st1" d="M17.5,7.6h1.6v8.2H21v1.3h-3.5V7.6z"/>
		<path class="st1" d="M26.3,10.9L26.3,10.9l-1.1,6.2h-0.7l-1.2-6.2h0v6.2h-1.3V7.6h1.9l1,5.4h0l0.9-5.4h2v9.5h-1.5V10.9z"/>
		<path class="st1" d="M28.5,17.1l1.8-9.5h1.8l1.8,9.5h-1.6L32,15.4h-1.7L30,17.1H28.5z M31.2,5.3c0.6,0,1.1,0.5,1.1,1.1
			c0,0.6-0.4,1.1-1.1,1.1c-0.6,0-1.1-0.5-1.1-1.1C30.1,5.8,30.6,5.3,31.2,5.3z M30.5,14.1h1.3l-0.6-3.8h0L30.5,14.1z M31.2,6.8
			c0.3,0,0.4-0.2,0.4-0.5s-0.2-0.5-0.4-0.5c-0.3,0-0.4,0.2-0.4,0.5S31,6.8,31.2,6.8z"/>
		<path class="st1" d="M34.7,7.6h1.6v8.2h1.9v1.3h-3.5V7.6z"/>
	</g>
	<g>
		<path class="st1" d="M89.2,17.1L91,7.6h1.8l1.8,9.5H93l-0.3-1.7H91l-0.3,1.7H89.2z M91.2,14.1h1.3l-0.6-3.8h0L91.2,14.1z"/>
	</g>
	<g>
		<path class="st1" d="M77.5,7.6v9.5h-1.6V9.8h0L74.8,11h0V9.3l1.5-1.7H77.5z"/>
		<path class="st1" d="M83.1,9.6v0.8c0,0.8-0.4,1.3-1.1,1.5c0.8,0.2,1.2,0.7,1.2,1.6V15c0,1.3-0.7,2.2-2.3,2.2
			c-1.6,0-2.2-0.9-2.2-2.4v-1.2h1.5v1.4c0,0.6,0.2,0.9,0.7,0.9c0.5,0,0.7-0.4,0.7-0.9v-1.6c0-0.5-0.2-0.8-0.8-0.8h-0.7v-1.2h0.6
			c0.5,0,0.9-0.3,0.9-0.8v-1c0-0.5-0.2-0.9-0.7-0.9c-0.5,0-0.7,0.3-0.7,0.9v1h-1.5V9.9c0-1.4,0.6-2.4,2.2-2.4
			C82.5,7.5,83.1,8.3,83.1,9.6z"/>
	</g>
	<polygon class="st1" points="85.4,9.9 85.4,14.1 87.6,12 	"/>
	<g>
		<path class="st0" d="M27.1,83.9v15.7c0,3.2-1.4,5.3-4.9,5.3c-3.7,0-5.2-2.1-5.2-5.3V83.9h3.5v16.1c0,1.2,0.5,2.1,1.7,2.1
			s1.7-0.8,1.7-2.1V83.9H27.1z"/>
		<path class="st0" d="M32.2,91.6v13.1h-2.9V83.9h3.4l3.8,11.9V83.9h2.9v20.8h-3.1L32.2,91.6z"/>
		<path class="st0" d="M41.4,83.9h8.2v2.9h-4.7v6h3.5v2.8h-3.5v9.2h-3.5V83.9z"/>
		<path class="st0" d="M50.5,99.3V89.2c0-3.3,1.5-5.6,5.2-5.6c3.9,0,4.9,2.1,4.9,5.2v2.5h-3.2v-2.7c0-1.3-0.4-2-1.7-2
			S54,87.4,54,88.7v11.2c0,1.3,0.5,2.1,1.8,2.1s1.7-0.8,1.7-2v-3.8h3.2v3.6c0,3-1.2,5.2-4.9,5.2C52,104.9,50.5,102.5,50.5,99.3z"/>
		<path class="st0" d="M62.4,99.3V89.2c0-3.3,1.5-5.6,5.2-5.6c3.9,0,4.9,2.1,4.9,5.2v2.5h-3.2v-2.7c0-1.3-0.4-2-1.7-2
			c-1.3,0-1.8,0.9-1.8,2.1v11.2c0,1.3,0.5,2.1,1.8,2.1c1.3,0,1.7-0.8,1.7-2v-3.8h3.2v3.6c0,3-1.2,5.2-4.9,5.2
			C63.9,104.9,62.4,102.5,62.4,99.3z"/>
		<path class="st0" d="M74.3,99.3V89.2c0-3.3,1.5-5.6,5.2-5.6c3.9,0,4.9,2.1,4.9,5.2v2.5h-3.2v-2.7c0-1.3-0.4-2-1.7-2
			c-1.3,0-1.8,0.9-1.8,2.1v11.2c0,1.3,0.5,2.1,1.8,2.1c1.3,0,1.7-0.8,1.7-2v-3.8h3.2v3.6c0,3-1.2,5.2-4.9,5.2
			C75.8,104.9,74.3,102.5,74.3,99.3z"/>
		<path class="st0" d="M84.3,54.8C81.9,51.4,71,38,50.9,38c-20.2,0-31,13.4-33.4,16.8c-0.1,0.1-0.2,0.3-0.3,0.4
			c0.1,0.1,0.2,0.2,0.3,0.4c2.4,3.4,13.3,16.8,33.4,16.8c20.2,0,31-13.4,33.4-16.8c0.1-0.1,0.2-0.3,0.3-0.4
			C84.5,55.1,84.4,54.9,84.3,54.8 M39.6,46.5c0.2-0.3,0.8-1,0.9-1.1c0.2-0.2,0.5-0.2,0.7-0.3c0.2,0,0.5,0.1,0.5,0.2
			c0,0.2-0.1,0.8-0.2,0.9c-0.3,0.3-1.1,0.7-1.5,0.7C39.7,46.8,39.5,46.6,39.6,46.5 M38.9,47.9C38.9,47.9,38.9,47.9,38.9,47.9
			c0.3-0.4,0.8-0.4,1.2-0.5c0.3-0.1,0.8,0.1,0.9,0.3c0.1,0.2-0.9,0.7-1,0.8c-0.5,0.4-1.2,1.4-1.7,1.5c-0.1,0-0.3,0-0.4,0
			C38.1,49.3,38.5,48.6,38.9,47.9 M46.4,63.4c-0.3,1.1-0.6,1.5-0.9,1.8c-0.3,0.3-1.3,0.8-1.9,0.7c-0.6,0-0.7-1.8-0.7-2.6
			c0-0.3-0.4,0.6-0.7-1.2c-0.1-1.2-0.9,0.1-0.9-0.7c-0.1-0.8-0.4-0.6-0.8-1.1c-0.4-0.5-0.9,0-1.4,0.3c-0.5,0.2-0.3,0.4-1.1,0.1
			c0,0,0,0,0,0c-0.7-1.7-1.1-3.5-1.1-5.5c0-0.5,0-0.9,0.1-1.4c0,0,0.1-0.1,0.1-0.1c0.7-0.9,0.7-1.1,0.7-1.1l0.8-0.3
			c0,0,1.3,0.2,2.3,0.6c0.8,0.3,2.1,1,2.8,0.7c0.5-0.2,1-0.5,0.9-1c-0.1-0.6-0.5-0.7-1-0.3c-0.2,0.1-0.6-0.8-1-0.8
			c-0.3,0,0.4,1.2,0.1,1.2c-0.3,0-0.8-1.2-0.9-1.4c-0.1-0.2-0.5-0.7-0.9-0.3c-0.8,0.8-2.2,0.7-2.4,0.9c-0.8,0.6-1-0.2-1-0.7
			c0-0.1,0.1-0.2,0.1-0.3c0.3-0.3,1.2-0.4,1.6-0.2c0.4,0.2,0.6-0.1,0.8-0.2c0.1-0.1,0.1-0.4,0-0.6c-0.1-0.2,0.2-0.3,0.4-0.4
			c0.2-0.1,0.8-0.5,1.1-0.6c0.3-0.1,1.6-0.3,2.1,0c0.6,0.3,1.1,0.1,1.4-0.3c0.4-0.4,0.8-0.8,1-0.8c0.2-0.1-0.5-0.8-1.1,0
			c-0.6,0.7-0.9,0.8-1.2,0.8c-0.3,0-1.9-0.4-2.1-0.9c-0.2-0.5,0.5-0.9,1.1-1.2c0.6-0.3,2.2-0.3,2.7-0.4c0.9-0.2,1.9-0.6,2.5-0.2
			c0.5,0.4-2.3,1-1.4,1.5c0.3,0.2,1.8-0.9,2.3-1.1c1.2-0.6-1.2-0.8-0.9-2.1c0.3-1.4-2.9-0.9-4.6-0.8c2.2-1.4,4.8-2.2,7.6-2.2
			c6.6,0,12.2,4.6,13.7,10.8c0,0.3,0,0.5-0.1,0.7c-0.1,0.5-1.1,0.9-1.6,0.1c-0.1-0.2-0.7-0.8-0.7,0.2c0,1,0.9,1.1,0,1.7
			c-0.9,0.6-1.1,0.4-1.5,0.6c-0.4,0.1-0.8,1.2-0.7,1.7c0.1,0.5,1.4,2,0.4,1.9c-0.2,0-1.9-1.2-2.2-1.9c-0.3-0.8-0.6-1.5-0.8-2.1
			c-0.2-0.6-0.8-0.7-1.3-0.4c-0.5,0.3,0.1,0.7-0.2,1.4c-0.4,0.7-0.6,1.4-1.1,0.8c-1.4-1.6-3.4-0.8-3.7-2.5c-0.2-0.9-1-0.9-1.7-1.4
			c-0.7-0.5-1.1-0.8-1.2-0.4c-0.1,0.3,2.1,2.1,2.3,2.6c0.2,0.7-0.7,1.3-1.3,1.4c-0.7,0.2-1-0.4-1.6-1.1c-0.7-0.7-0.9-1.2-1-0.6
			c-0.1,0.8,0.6,1.9,1.3,2.3c0.6,0.4,1.2,0.5,1,1.1c-0.2,0.6,0,0.3-0.6,0.9c-0.6,0.6-0.8,0.8-0.7,1.7c0,0.9-0.2,0.9-0.3,1.7
			C47,63,46.7,62.3,46.4,63.4 M61.5,57.8c0.5,0,1.2,0.6,0.9,0.9c-0.3,0.2-1,0.2-1.3-0.1C60.7,58.3,61.3,57.8,61.5,57.8 M60.9,57.4
			c-0.2-0.1-0.3-0.2-0.4-0.5c-0.1-0.3,0.2-0.5,0.5-0.4c0.3,0.1,0.7,0.6,0.7,0.8C61.6,57.5,61.1,57.4,60.9,57.4 M54.7,57.4
			c-0.3,0.2-1,0.2-1.3-0.1c-0.4-0.3,0.2-0.7,0.4-0.7C54.3,56.4,55,57.1,54.7,57.4 M49,60.1c-0.2,0.3-0.7,2.7-1.1,2.4
			c-0.4-0.3,0.1-2.7,0.2-2.9C48.7,58.6,49.9,58.7,49,60.1 M50.9,69.3c-1.4,0-2.7-0.2-4-0.6c-0.2-0.1-0.3-0.4-0.2-0.7
			c0.4-1.1,1.7-1.6,2.8-1.7c2.3-0.2,5.3,1.5,5.8,1.2c0.5-0.3,1.4-1.5,2.9-1.5c1,0,1,0.2,1.3,0.3C57,68.2,54.1,69.3,50.9,69.3
			 M60.8,65.2c-0.1,0-0.3-0.1-0.4-0.2c-0.8-0.4-0.7,0.2-1.1,0.1c-0.4-0.1,0.4-1-0.7-0.3c-1.1,0.7-0.8-0.1-1.3-1.4
			c-0.5-1.3,0.6-2.7,1.5-3c1.2-0.4,2-0.5,2.6-0.7c1.7-0.4,2-1.4,2.4-0.8c0.1,0.1,0.1,0.2,0.2,0.3c0.1,0.2,0.2,0.6,0.2,0.9
			C63.3,62.1,62.2,63.8,60.8,65.2 M64.6,58.1c-0.4-0.1-2-2.3-0.7-3.7c0.2-0.2-0.4-0.9-0.2-0.9c0.7-0.1,1,0.4,1.2,1
			c0,0.3,0,0.5,0,0.8C64.9,56.2,64.8,57.2,64.6,58.1"/>
	</g>
	<g>
		<path class="st1" d="M98.5,153.9H3.2v-31.8h95.3V153.9z M4.2,152.9h93.3v-29.8H4.2V152.9z"/>
	</g>
</g>
</svg>
