<?xml version="1.0" encoding="utf-8"?>
<!-- Generator: Adobe Illustrator 22.1.0, SVG Export Plug-In . SVG Version: 6.00 Build 0)  -->
<svg version="1.1" xmlns="http://www.w3.org/2000/svg" xmlns:xlink="http://www.w3.org/1999/xlink" x="0px" y="0px"
	 viewBox="0 0 101.5 184.2" style="enable-background:new 0 0 101.5 184.2;" xml:space="preserve">
<style type="text/css">
	.st0{fill:#FFFFFF;}
	.st1{fill:#3F7E44;}
</style>
<g id="WHITE_BG">
	<rect class="st0" width="101.5" height="184.2"/>
</g>
<g id="TARGETS">
	<g>
		<path class="st1" d="M10.4,129.4H7.8v2.8h-1v-6.4h3.8v0.9H7.8v1.8h2.6V129.4z"/>
		<path class="st1" d="M12.4,132.2h-1v-6.4h2.1c1.6,0,2.2,0.7,2.2,1.9c0,0.8-0.3,1.4-1,1.7l1.3,2.8h-1.1l-1.2-2.6h-1.3V132.2z
			 M12.4,128.7h1.3c0.9,0,1-0.5,1-1c0-0.5-0.1-1-1-1h-1.3V128.7z"/>
		<path class="st1" d="M19.9,130.6h-2l-0.5,1.6h-1l2-6.5h1l2,6.5h-1L19.9,130.6z M18,124.4c0.3,0,0.6,0.3,0.6,0.6
			c0,0.3-0.3,0.6-0.6,0.6c-0.3,0-0.6-0.3-0.6-0.6C17.4,124.6,17.7,124.4,18,124.4z M18.9,127l-0.8,2.8h1.6L18.9,127z M19.8,124.4
			c0.3,0,0.6,0.3,0.6,0.6c0,0.3-0.3,0.6-0.6,0.6c-0.3,0-0.6-0.3-0.6-0.6C19.2,124.6,19.5,124.4,19.8,124.4z"/>
		<path class="st1" d="M25.5,131.3h-0.9l-1.6-3.9l0,4.8h-1v-6.4h1.2l1.7,4.3l1.7-4.3H28v6.4h-1l0-4.8L25.5,131.3z"/>
		<path class="st1" d="M28.7,131.3c0.2,0.1,0.4,0.1,0.7,0.1c0.5,0,0.8-0.2,0.8-0.7v-4.9h1v5.1c0,0.9-0.5,1.4-1.7,1.4
			c-0.2,0-0.5,0-0.7-0.1V131.3z"/>
		<path class="st1" d="M35.4,130.6h-2l-0.5,1.6h-1l2-6.5h1l2,6.5h-1L35.4,130.6z M34.3,127l-0.8,2.8h1.6L34.3,127z"/>
		<path class="st1" d="M42.6,131.3h-0.9l-1.6-3.9l0,4.8h-1v-6.4h1.2l1.7,4.3l1.7-4.3h1.2v6.4h-1l0-4.8L42.6,131.3z"/>
		<path class="st1" d="M49.7,129.3H47v2H50v0.9h-3.9v-6.4H50v0.9H47v1.8h2.7V129.3z"/>
		<path class="st1" d="M52.3,129.4l-0.5,0.6l0,2.2h-1v-6.4h1l0,3l2.3-3h1.2l-2.3,2.8l2.6,3.6h-1.2L52.3,129.4z"/>
		<path class="st1" d="M59.3,130.6h-2l-0.5,1.6h-1l2-6.5h1l2,6.5h-1L59.3,130.6z M58.3,127l-0.8,2.8h1.6L58.3,127z"/>
		<path class="st1" d="M65.2,132.2l-2.8-4.5l0,4.5h-0.9v-6.4h0.9l2.8,4.5l0-4.5H66v6.4H65.2z"/>
		<path class="st1" d="M67.2,132.2v-6.4h1v6.4H67.2z"/>
		<path class="st1" d="M73.4,130.3c0,1.2-0.7,2-2.4,2c-0.6,0-1.5-0.1-1.9-0.4v-1c0.3,0.2,1,0.4,1.8,0.4c1.1,0,1.5-0.5,1.5-1.1
			c0-0.7-0.3-0.9-1.2-1c-1.6-0.2-2.2-0.6-2.2-1.8c0-0.9,0.5-1.8,2.3-1.8c0.8,0,1.4,0.1,1.7,0.3v0.9c-0.5-0.2-1-0.3-1.7-0.3
			c-1,0-1.3,0.4-1.3,1c0,0.7,0.4,0.8,1.2,0.9C72.7,128.7,73.4,129,73.4,130.3z"/>
		<path class="st1" d="M77.7,131.3h-0.9l-1.6-3.9l0,4.8h-1v-6.4h1.2l1.7,4.3l1.7-4.3h1.2v6.4h-1l0-4.8L77.7,131.3z"/>
		<path class="st1" d="M84.8,129.3h-2.7v2H85v0.9h-3.9v-6.4H85v0.9h-2.9v1.8h2.7V129.3z"/>
		<path class="st1" d="M86.9,132.2h-1v-6.4H88c1.6,0,2.2,0.7,2.2,1.9c0,0.8-0.3,1.4-1,1.7l1.3,2.8h-1.1l-1.2-2.6h-1.3V132.2z
			 M86.9,128.7h1.3c0.9,0,1-0.5,1-1c0-0.5-0.1-1-1-1h-1.3V128.7z"/>
		<path class="st1" d="M10.4,138.4H7.8v2.8h-1v-6.4h3.8v0.9H7.8v1.8h2.6V138.4z"/>
		<path class="st1" d="M11.4,138c0-1.8,0.4-3.3,2.5-3.3c2,0,2.5,1.5,2.5,3.3s-0.4,3.3-2.5,3.3C11.8,141.3,11.4,139.8,11.4,138z
			 M12.9,133.4c0.3,0,0.6,0.3,0.6,0.6c0,0.3-0.3,0.6-0.6,0.6c-0.3,0-0.6-0.3-0.6-0.6C12.3,133.6,12.6,133.4,12.9,133.4z M12.4,138
			c0,1.5,0.3,2.4,1.5,2.4s1.5-0.9,1.5-2.4c0-1.5-0.3-2.4-1.5-2.4S12.4,136.5,12.4,138z M14.7,133.4c0.3,0,0.6,0.3,0.6,0.6
			c0,0.3-0.3,0.6-0.6,0.6c-0.3,0-0.6-0.3-0.6-0.6C14.1,133.6,14.4,133.4,14.7,133.4z"/>
		<path class="st1" d="M18.2,141.2h-1v-6.4h2.1c1.6,0,2.2,0.7,2.2,1.9c0,0.8-0.3,1.4-1,1.7l1.3,2.8h-1.1l-1.2-2.6h-1.3V141.2z
			 M18.2,137.7h1.3c0.9,0,1-0.5,1-1c0-0.5-0.1-1-1-1h-1.3V137.7z"/>
		<path class="st1" d="M27.3,139.6h-2l-0.5,1.6h-1l2-6.5h1l2,6.5h-1L27.3,139.6z M26.3,136l-0.8,2.8h1.6L26.3,136z"/>
		<path class="st1" d="M31,135.7v5.5h-1v-5.5h-1.7v-0.9h4.3v0.9H31z"/>
		<path class="st1" d="M35.7,135.7v5.5h-1v-5.5h-1.7v-0.9h4.3v0.9H35.7z"/>
		<path class="st1" d="M43,141.2v-2.9h-2.6v2.9h-1v-6.4h1v2.6H43v-2.6h1v6.4H43z"/>
		<path class="st1" d="M44.9,138c0-1.8,0.4-3.3,2.5-3.3c2,0,2.5,1.5,2.5,3.3s-0.4,3.3-2.5,3.3C45.3,141.3,44.9,139.8,44.9,138z
			 M46.4,133.4c0.3,0,0.6,0.3,0.6,0.6c0,0.3-0.3,0.6-0.6,0.6c-0.3,0-0.6-0.3-0.6-0.6C45.8,133.6,46.1,133.4,46.4,133.4z M45.8,138
			c0,1.5,0.3,2.4,1.5,2.4s1.5-0.9,1.5-2.4c0-1.5-0.3-2.4-1.5-2.4S45.8,136.5,45.8,138z M48.2,133.4c0.3,0,0.6,0.3,0.6,0.6
			c0,0.3-0.3,0.6-0.6,0.6c-0.3,0-0.6-0.3-0.6-0.6C47.6,133.6,47.9,133.4,48.2,133.4z"/>
		<path class="st1" d="M50.4,140.3c0.2,0.1,0.4,0.1,0.7,0.1c0.5,0,0.8-0.2,0.8-0.7v-4.9h1v5.1c0,0.9-0.5,1.4-1.7,1.4
			c-0.2,0-0.5,0-0.7-0.1V140.3z"/>
		<path class="st1" d="M57,139.6h-2l-0.5,1.6h-1l2-6.5h1l2,6.5h-1L57,139.6z M56,136l-0.8,2.8h1.6L56,136z"/>
		<path class="st1" d="M10.4,147.4H7.8v2.8h-1v-6.4h3.8v0.9H7.8v1.8h2.6V147.4z"/>
		<path class="st1" d="M11.4,147c0-1.8,0.4-3.3,2.5-3.3c2,0,2.5,1.5,2.5,3.3s-0.4,3.3-2.5,3.3C11.8,150.3,11.4,148.8,11.4,147z
			 M12.9,142.4c0.3,0,0.6,0.3,0.6,0.6c0,0.3-0.3,0.6-0.6,0.6c-0.3,0-0.6-0.3-0.6-0.6C12.3,142.6,12.6,142.4,12.9,142.4z M12.4,147
			c0,1.5,0.3,2.4,1.5,2.4s1.5-0.9,1.5-2.4c0-1.5-0.3-2.4-1.5-2.4S12.4,145.5,12.4,147z M14.7,142.4c0.3,0,0.6,0.3,0.6,0.6
			c0,0.3-0.3,0.6-0.6,0.6c-0.3,0-0.6-0.3-0.6-0.6C14.1,142.6,14.4,142.4,14.7,142.4z"/>
		<path class="st1" d="M18.2,150.2h-1v-6.4h2.1c1.6,0,2.2,0.7,2.2,1.9c0,0.8-0.3,1.4-1,1.7l1.3,2.8h-1.1l-1.2-2.6h-1.3V150.2z
			 M18.2,146.7h1.3c0.9,0,1-0.5,1-1c0-0.5-0.1-1-1-1h-1.3V146.7z"/>
		<path class="st1" d="M25.8,149.3h-0.9l-1.6-3.9l0,4.8h-1v-6.4h1.2l1.7,4.3l1.7-4.3h1.2v6.4h-1l0-4.8L25.8,149.3z"/>
		<path class="st1" d="M32.6,148.6h-2l-0.5,1.6h-1l2-6.5h1l2,6.5h-1L32.6,148.6z M31.5,142.3c0.5,0,0.8,0.2,0.8,0.7
			c0,0.5-0.4,0.7-0.8,0.7s-0.8-0.2-0.8-0.7C30.7,142.4,31.1,142.3,31.5,142.3z M31.5,145l-0.8,2.8h1.6L31.5,145z M31.5,142.8
			c-0.2,0-0.3,0.1-0.3,0.1c0,0.1,0.1,0.1,0.3,0.1s0.3-0.1,0.3-0.1C31.8,142.9,31.7,142.8,31.5,142.8z"/>
		<path class="st1" d="M34.5,147c0-2,0.7-3.3,2.6-3.3c0.9,0,1.5,0.2,1.8,0.3v0.9c-0.6-0.2-1.1-0.4-1.7-0.4c-1.3,0-1.8,0.9-1.8,2.4
			c0,1.6,0.5,2.4,1.8,2.4c0.4,0,0.7-0.1,0.9-0.1v-1.7H37v-0.9h2.1v3.2c-0.3,0.2-1.1,0.4-2,0.4C35.2,150.3,34.5,149,34.5,147z"/>
		<path class="st1" d="M43.2,148.6h-2l-0.5,1.6h-1l2-6.5h1l2,6.5h-1L43.2,148.6z M42.2,145l-0.8,2.8H43L42.2,145z"/>
		<path class="st1" d="M49.1,150.2l-2.8-4.5l0,4.5h-0.9v-6.4h0.9l2.8,4.5l0-4.5h0.9v6.4H49.1z"/>
		<path class="st1" d="M54.6,144.7v5.5h-1v-5.5H52v-0.9h4.3v0.9H54.6z"/>
		<path class="st1" d="M57.1,150.2v-6.4h1v6.4H57.1z"/>
		<path class="st1" d="M60.2,149.3h2.8v0.9h-3.7v-6.4h1V149.3z"/>
		<path class="st1" d="M64.6,149.3h2.8v0.9h-3.7v-6.4h1V149.3z"/>
		<path class="st1" d="M8.3,156.4L7.8,157l0,2.2h-1v-6.4h1l0,3l2.3-3h1.2L9,155.6l2.6,3.6h-1.2L8.3,156.4z"/>
		<path class="st1" d="M13.1,158.3h2.8v0.9h-3.7v-6.4h1V158.3z"/>
		<path class="st1" d="M16.7,159.2v-6.4h1v6.4H16.7z"/>
		<path class="st1" d="M22.2,158.3h-0.9l-1.6-3.9l0,4.8h-1v-6.4H20l1.7,4.3l1.7-4.3h1.2v6.4h-1l0-4.8L22.2,158.3z"/>
		<path class="st1" d="M28.9,157.6h-2l-0.5,1.6h-1l2-6.5h1l2,6.5h-1L28.9,157.6z M27.9,154l-0.8,2.8h1.6L27.9,154z"/>
		<path class="st1" d="M32.6,153.7v5.5h-1v-5.5H30v-0.9h4.3v0.9H32.6z"/>
		<path class="st1" d="M35.9,159.2h-1v-6.4H37c1.6,0,2.2,0.7,2.2,1.9c0,0.8-0.3,1.4-1,1.7l1.3,2.8h-1.1l-1.2-2.6h-1.3V159.2z
			 M35.9,155.7h1.3c0.9,0,1-0.5,1-1c0-0.5-0.1-1-1-1h-1.3V155.7z"/>
		<path class="st1" d="M43.8,156.3h-2.7v2H44v0.9h-3.9v-6.4H44v0.9h-2.9v1.8h2.7V156.3z"/>
		<path class="st1" d="M45.9,158.3h2.8v0.9h-3.7v-6.4h1V158.3z"/>
		<path class="st1" d="M52.6,157.6h-2l-0.5,1.6h-1l2-6.5h1l2,6.5h-1L52.6,157.6z M51.5,154l-0.8,2.8h1.6L51.5,154z"/>
		<path class="st1" d="M56.3,153.7v5.5h-1v-5.5h-1.7v-0.9h4.3v0.9H56.3z"/>
		<path class="st1" d="M62.2,156.3h-2.7v2h2.9v0.9h-3.9v-6.4h3.9v0.9h-2.9v1.8h2.7V156.3z"/>
		<path class="st1" d="M64.3,159.2h-1v-6.4h2.1c1.6,0,2.2,0.7,2.2,1.9c0,0.8-0.3,1.4-1,1.7l1.3,2.8h-1.1l-1.2-2.6h-1.3V159.2z
			 M64.3,155.7h1.3c0.9,0,1-0.5,1-1c0-0.5-0.1-1-1-1h-1.3V155.7z"/>
		<path class="st1" d="M71.8,157.6h-2l-0.5,1.6h-1l2-6.5h1l2,6.5h-1L71.8,157.6z M70.8,154l-0.8,2.8h1.6L70.8,154z"/>
		<path class="st1" d="M74,159.2v-6.4h1.9c2.1,0,2.7,1.4,2.7,3.2c0,1.8-0.6,3.2-2.7,3.2H74z M75,158.3h1c1.3,0,1.7-0.9,1.7-2.3
			c0-1.4-0.4-2.3-1.7-2.3h-1V158.3z"/>
		<path class="st1" d="M7.8,168.2h-1v-6.4h2c1.6,0,2.2,1,2.2,2c0,1-0.6,2-2.2,2H7.8V168.2z M7.8,164.9H9c1,0,1.1-0.6,1.1-1.1
			s-0.2-1.1-1.1-1.1H7.8V164.9z"/>
		<path class="st1" d="M12.7,167.3h2.8v0.9h-3.7v-6.4h1V167.3z"/>
		<path class="st1" d="M19.4,166.6h-2l-0.5,1.6h-1l2-6.5h1l2,6.5h-1L19.4,166.6z M18.4,163l-0.8,2.8h1.6L18.4,163z"/>
		<path class="st1" d="M25.3,168.2l-2.8-4.5l0,4.5h-0.9v-6.4h0.9l2.8,4.5l0-4.5h0.9v6.4H25.3z"/>
		<path class="st1" d="M30.7,165.3h-2.7v2H31v0.9h-3.9v-6.4H31v0.9h-2.9v1.8h2.7V165.3z"/>
		<path class="st1" d="M32.8,168.2h-1v-6.4H34c1.6,0,2.2,0.7,2.2,1.9c0,0.8-0.3,1.4-1,1.7l1.3,2.8h-1.1l-1.2-2.6h-1.3V168.2z
			 M32.8,164.7h1.3c0.9,0,1-0.5,1-1c0-0.5-0.1-1-1-1h-1.3V164.7z"/>
		<path class="st1" d="M37.3,168.2v-6.4h1v6.4H37.3z"/>
		<path class="st1" d="M43,168.2l-2.8-4.5l0,4.5h-0.9v-6.4h0.9l2.8,4.5l0-4.5h0.9v6.4H43z"/>
		<path class="st1" d="M44.8,165c0-2,0.7-3.3,2.6-3.3c0.9,0,1.5,0.2,1.8,0.3v0.9c-0.6-0.2-1.1-0.4-1.7-0.4c-1.3,0-1.8,0.9-1.8,2.4
			c0,1.6,0.5,2.4,1.8,2.4c0.4,0,0.7-0.1,0.9-0.1v-1.7h-1.1v-0.9h2.1v3.2c-0.3,0.2-1.1,0.4-2,0.4C45.5,168.3,44.8,167,44.8,165z"/>
		<path class="st1" d="M52,165c0-1.8,0.4-3.3,2.5-3.3c2,0,2.5,1.5,2.5,3.3s-0.4,3.3-2.5,3.3C52.4,168.3,52,166.8,52,165z M52.9,165
			c0,1.5,0.3,2.4,1.5,2.4s1.5-0.9,1.5-2.4s-0.3-2.4-1.5-2.4S52.9,163.5,52.9,165z"/>
		<path class="st1" d="M60.3,161.7c0.8,0,1.2,0.1,1.5,0.3v0.9c-0.5-0.2-0.9-0.3-1.4-0.3c-1.2,0-1.7,0.8-1.7,2.4s0.5,2.4,1.7,2.4
			c0.6,0,1-0.1,1.4-0.3v0.9c-0.3,0.1-0.7,0.3-1.5,0.3c-1.9,0-2.6-1.2-2.6-3.3S58.4,161.7,60.3,161.7z"/>
		<path class="st1" d="M66.3,168.2v-2.9h-2.6v2.9h-1v-6.4h1v2.6h2.6v-2.6h1v6.4H66.3z"/>
		<path class="st1" d="M10.4,174.4H7.8v2.8h-1v-6.4h3.8v0.9H7.8v1.8h2.6V174.4z"/>
		<path class="st1" d="M11.4,174c0-1.8,0.4-3.3,2.5-3.3c2,0,2.5,1.5,2.5,3.3s-0.4,3.3-2.5,3.3C11.8,177.3,11.4,175.8,11.4,174z
			 M12.9,169.4c0.3,0,0.6,0.3,0.6,0.6s-0.3,0.6-0.6,0.6c-0.3,0-0.6-0.3-0.6-0.6S12.6,169.4,12.9,169.4z M12.4,174
			c0,1.5,0.3,2.4,1.5,2.4s1.5-0.9,1.5-2.4s-0.3-2.4-1.5-2.4S12.4,172.5,12.4,174z M14.7,169.4c0.3,0,0.6,0.3,0.6,0.6
			s-0.3,0.6-0.6,0.6c-0.3,0-0.6-0.3-0.6-0.6S14.4,169.4,14.7,169.4z"/>
		<path class="st1" d="M18.2,177.2h-1v-6.4h2.1c1.6,0,2.2,0.7,2.2,1.9c0,0.8-0.3,1.4-1,1.7l1.3,2.8h-1.1l-1.2-2.6h-1.3V177.2z
			 M18.2,173.7h1.3c0.9,0,1-0.5,1-1c0-0.5-0.1-1-1-1h-1.3V173.7z"/>
		<path class="st1" d="M26.8,170.8l-2,6.5h-1l-2-6.5h1l1.5,5.2l1.5-5.2H26.8z"/>
		<path class="st1" d="M30,175.6h-2l-0.5,1.6h-1l2-6.5h1l2,6.5h-1L30,175.6z M28.9,172l-0.8,2.8h1.6L28.9,172z"/>
		<path class="st1" d="M33.1,176.3h2.8v0.9h-3.7v-6.4h1V176.3z"/>
		<path class="st1" d="M38,171.7v5.5h-1v-5.5h-1.7v-0.9h4.3v0.9H38z"/>
		<path class="st1" d="M44.1,177.2l-2.8-4.5l0,4.5h-0.9v-6.4h0.9l2.8,4.5l0-4.5h0.9v6.4H44.1z"/>
		<path class="st1" d="M46.1,177.2v-6.4h1v6.4H46.1z"/>
		<path class="st1" d="M51.8,177.2l-2.8-4.5l0,4.5h-0.9v-6.4H49l2.8,4.5l0-4.5h0.9v6.4H51.8z"/>
		<path class="st1" d="M53.6,174c0-2,0.7-3.3,2.6-3.3c0.9,0,1.5,0.2,1.8,0.3v0.9c-0.6-0.2-1.1-0.4-1.7-0.4c-1.3,0-1.8,0.9-1.8,2.4
			c0,1.6,0.5,2.4,1.8,2.4c0.4,0,0.7-0.1,0.9-0.1v-1.7h-1.1v-0.9h2.1v3.2c-0.3,0.2-1.1,0.4-2,0.4C54.3,177.3,53.6,176,53.6,174z"/>
	</g>
	<rect x="3.3" y="24" class="st1" width="94.8" height="94.8"/>
	<path class="st1" d="M98.2,20.7H3.3V3.3h94.8V20.7z M4.3,19.7h92.8V4.3H4.3V19.7z"/>
	<g>
		<path class="st1" d="M11.7,10.2v4.4c0,1.5-0.6,2.5-2.3,2.5H6.9V7.6h2.5C11.1,7.6,11.7,8.7,11.7,10.2z M9.2,15.8
			c0.7,0,0.9-0.4,0.9-1v-5c0-0.6-0.3-1-0.9-1H8.5v6.9H9.2z"/>
		<path class="st1" d="M12.7,7.6h3.8v1.3h-2.2v2.7h1.6v1.3h-1.6v2.9h2.2v1.3h-3.8V7.6z"/>
		<path class="st1" d="M17.5,7.6h1.6v8.2H21v1.3h-3.5V7.6z"/>
		<path class="st1" d="M26.3,10.9L26.3,10.9l-1.1,6.2h-0.7l-1.2-6.2h0v6.2h-1.3V7.6h1.9l1,5.4h0l0.9-5.4h2v9.5h-1.5V10.9z"/>
		<path class="st1" d="M28.5,17.1l1.8-9.5h1.8l1.8,9.5h-1.6L32,15.4h-1.7L30,17.1H28.5z M31.2,5.3c0.6,0,1.1,0.5,1.1,1.1
			c0,0.6-0.4,1.1-1.1,1.1c-0.6,0-1.1-0.5-1.1-1.1C30.1,5.8,30.6,5.3,31.2,5.3z M30.5,14.1h1.3l-0.6-3.8h0L30.5,14.1z M31.2,6.8
			c0.3,0,0.4-0.2,0.4-0.5s-0.2-0.5-0.4-0.5c-0.3,0-0.4,0.2-0.4,0.5S31,6.8,31.2,6.8z"/>
		<path class="st1" d="M34.7,7.6h1.6v8.2h1.9v1.3h-3.5V7.6z"/>
	</g>
	<g>
		<path class="st1" d="M89.8,7.6h2.3c1.6,0,2.1,0.7,2.1,2.1v1c0,0.8-0.3,1.3-1,1.5c0.8,0.2,1.2,0.7,1.2,1.6V15
			c0,1.3-0.6,2.1-2.2,2.1h-2.5V7.6z M91.4,11.6h0.6c0.5,0,0.8-0.3,0.8-0.8V9.7c0-0.5-0.2-0.8-0.8-0.8h-0.5V11.6z M91.4,12.8v3h0.7
			c0.5,0,0.8-0.3,0.8-0.8v-1.4c0-0.5-0.2-0.8-0.8-0.8H91.4z"/>
	</g>
	<g>
		<path class="st1" d="M77.5,7.6v9.5h-1.6V9.8h0L74.8,11h0V9.3l1.5-1.7H77.5z"/>
		<path class="st1" d="M83.1,9.6v0.8c0,0.8-0.4,1.3-1.1,1.5c0.8,0.2,1.2,0.7,1.2,1.6V15c0,1.3-0.7,2.2-2.3,2.2
			c-1.6,0-2.2-0.9-2.2-2.4v-1.2h1.5v1.4c0,0.6,0.2,0.9,0.7,0.9c0.5,0,0.7-0.4,0.7-0.9v-1.6c0-0.5-0.2-0.8-0.8-0.8h-0.7v-1.2h0.6
			c0.5,0,0.9-0.3,0.9-0.8v-1c0-0.5-0.2-0.9-0.7-0.9c-0.5,0-0.7,0.3-0.7,0.9v1h-1.5V9.9c0-1.4,0.6-2.4,2.2-2.4
			C82.5,7.5,83.1,8.3,83.1,9.6z"/>
	</g>
	<polygon class="st1" points="85.4,9.9 85.4,14.1 87.6,12 	"/>
	<g>
		<path class="st0" d="M90.1,89.5c0,0.3-0.3,0.6-0.6,0.6H50.9c-0.3,0-0.6-0.3-0.6-0.6v-1.2c0-0.3,0.3-0.6,0.6-0.6h38.6
			c0.3,0,0.6,0.3,0.6,0.6V89.5z"/>
		<g>
			<path class="st0" d="M82.4,60.7c1.4,0,2.5-1.1,2.5-2.4c0-1.3-1.1-2.4-2.5-2.4c-1.4,0-2.5,1.1-2.5,2.4
				C79.9,59.6,81.1,60.7,82.4,60.7z"/>
			<path class="st0" d="M89.5,70.4l-2.1-6.6c0,0-0.7-1.9-2.4-1.9h-5.3c-1.6,0-2.4,1.9-2.4,1.9l-2.1,6.6c0,0-0.4,1.2,0.7,1.5
				c1,0.3,1.4-0.9,1.4-0.9l1.7-5.5c0,0,0.1-0.4,0.4-0.3c0.3,0.1,0.2,0.5,0.2,0.5l-2.9,10.3h2.7v7.4c0,0.7,0.6,1.3,1.3,1.3
				c0.7,0,1.3-0.6,1.3-1.3v-7.4h0.4h0.4v7.4c0,0.7,0.6,1.3,1.3,1.3c0.7,0,1.3-0.6,1.3-1.3v-7.4h2.7l-2.9-10.3c0,0-0.1-0.5,0.2-0.5
				c0.3-0.1,0.4,0.3,0.4,0.3l1.7,5.5c0,0,0.3,1.2,1.4,0.9C89.8,71.6,89.5,70.4,89.5,70.4z"/>
		</g>
		<g>
			<path class="st0" d="M57.1,59.7c0,1.3,1.1,2.4,2.4,2.4c1.3,0,2.4-1.1,2.4-2.4c0-0.9-0.5-1.7-1.2-2.1c0.1-0.1,0.1-0.3,0.1-0.4
				c0-0.5-0.5-0.9-1.2-0.9c-0.7,0-1.2,0.4-1.2,0.9c0,0.1,0,0.2,0.1,0.4C57.7,58,57.1,58.8,57.1,59.7z"/>
			<path class="st0" d="M64.3,64.4c0,0-0.7-1.9-2.3-1.9h-2.5H57c-1.6,0-2.3,1.9-2.3,1.9l-2,6.4c0,0-0.3,1,0.4,1.4
				c0,0-0.1,0.1-0.1,0.1l-2.3,12.1c0,0.2,0.1,0.4,0.3,0.4c0,0,0,0,0.1,0c0.2,0,0.3-0.1,0.4-0.3l2.3-12.1c0,0,0-0.1,0-0.1
				c0.6-0.1,0.9-0.9,0.9-0.9l1.6-5.4c0,0,0.1-0.4,0.4-0.3c0.3,0.1,0.2,0.5,0.2,0.5l-2.8,10h2.6v7.2c0,0.7,0.6,1.2,1.2,1.2
				c0.7,0,1.2-0.6,1.2-1.2v-7.2h0.4h0.3v7.2c0,0.7,0.5,1.2,1.2,1.2c0.7,0,1.2-0.6,1.2-1.2v-7.2h2.6l-2.8-10c0,0-0.1-0.4,0.2-0.5
				c0.3-0.1,0.4,0.3,0.4,0.3l1.6,5.4c0,0,0.3,1.1,1.3,0.9c1-0.3,0.6-1.5,0.6-1.5L64.3,64.4z"/>
		</g>
		<g>
			<path class="st0" d="M75,72.6c-0.5-0.2-0.8,0.1-0.9,0.3c0,0-0.9,1.5-1.1,1.7c-0.3,0.3-0.5,0.3-0.5,0.3h-1.1h-1.1
				c0,0-0.3,0-0.5-0.3c-0.3-0.3-1.1-1.8-1.2-1.8c0,0-0.2-0.3-0.6-0.3c-0.4,0-0.6,0.3-0.6,0.6c0,0.1,0.1,0.3,0.1,0.3l1.8,3.2
				c0,0,0.1,0.2,0.1,0.4v0.5l0,0c0,0.3-0.1,0.5-0.1,0.5l-0.9,3.4h0.9v2.5h0c0,0.5,0.4,0.9,0.9,0.9c0.5,0,0.9-0.4,0.9-0.9v-2.4
				c0,0,0,0,0-0.1h0.3h0.3c0,0.1,0,0.1,0,0.1v2.4c0,0.5,0.4,0.9,0.9,0.9c0.5,0,0.9-0.4,0.9-0.9v-2.5h0.9l-0.9-3.4
				c-0.1-0.2-0.1-0.3-0.1-0.4v-0.1c0,0,0,0,0,0l0,0v-0.5c0-0.2,0.1-0.4,0.1-0.4l1.7-3c0,0,0.1-0.2,0.2-0.3
				C75.4,73.1,75.3,72.8,75,72.6z"/>
			<path class="st0" d="M71.1,73.9c1,0,1.8-0.8,1.8-1.8c0-1-0.8-1.8-1.8-1.8c-1,0-1.8,0.8-1.8,1.8C69.3,73.1,70.1,73.9,71.1,73.9z"
				/>
		</g>
		<g>
			<polygon class="st0" points="13.5,54.5 11.4,54.5 11.4,95.1 40.5,95.1 40.5,92.6 13.5,92.6 			"/>
			<path class="st0" d="M44.8,49.6h-29v2.5v38.1h26.8h2.2V49.6z M41.3,83.1c0,0.1-0.1,0.1-0.2,0.1H19.6c-0.1,0-0.2-0.1-0.2-0.1v-3.4
				c0-0.1,0.1-0.1,0.2-0.1h21.5c0.1,0,0.2,0.1,0.2,0.1V83.1z M41.3,77.1c0,0.1-0.1,0.1-0.2,0.1H19.6c-0.1,0-0.2-0.1-0.2-0.1v-3.4
				c0-0.1,0.1-0.1,0.2-0.1h21.5c0.1,0,0.2,0.1,0.2,0.1V77.1z M41.2,62c-0.8,1.1-4.3,5.5-10.9,5.5c-6.6,0-10.1-4.4-10.9-5.5
				c0,0-0.1-0.1-0.1-0.1c0,0,0.1-0.1,0.1-0.1c0.8-1.1,4.3-5.5,10.9-5.5c6.6,0,10.1,4.4,10.9,5.5c0,0,0.1,0.1,0.1,0.1
				C41.3,61.9,41.2,62,41.2,62z"/>
			<path class="st0" d="M26.8,59.2c0.1,0,0.4-0.1,0.5-0.2c0,0,0.1-0.2,0.1-0.3c0-0.1-0.1-0.1-0.2-0.1c-0.1,0-0.2,0-0.2,0.1
				c0,0-0.2,0.3-0.3,0.4C26.6,59.1,26.7,59.2,26.8,59.2z"/>
			<path class="st0" d="M34.1,63c0.1-0.1-0.1-0.3-0.3-0.3c-0.1,0-0.3,0.2-0.1,0.2C33.8,63.1,34,63.1,34.1,63z"/>
			<path class="st0" d="M31.3,62.3c-0.1,0-0.3,0.2-0.1,0.2c0.1,0.1,0.3,0.1,0.4,0C31.7,62.5,31.4,62.3,31.3,62.3z"/>
			<path class="st0" d="M29.4,63.3c0,0.1-0.2,0.9-0.1,1c0.1,0.1,0.3-0.7,0.4-0.8C30,63,29.6,63,29.4,63.3z"/>
			<path class="st0" d="M31.8,65.9c-0.2,0.1-1.1-0.5-1.9-0.4c-0.3,0-0.8,0.2-0.9,0.5c0,0.1,0,0.2,0.1,0.2c0.4,0.1,0.8,0.2,1.3,0.2
				c1,0,2-0.3,2.8-0.9c-0.1,0-0.1-0.1-0.4-0.1C32.2,65.4,31.9,65.8,31.8,65.9z"/>
			<path class="st0" d="M33.8,62.6c0-0.1-0.1-0.2-0.2-0.3c-0.1,0-0.2,0-0.1,0.1c0,0.1,0.1,0.2,0.1,0.2
				C33.6,62.6,33.8,62.6,33.8,62.6z"/>
			<path class="st0" d="M29.1,64.2c0-0.2,0.1-0.3,0.1-0.5c0-0.3,0-0.4,0.2-0.6c0.2-0.2,0.1-0.1,0.2-0.3c0.1-0.2-0.1-0.2-0.3-0.4
				c-0.2-0.1-0.4-0.5-0.4-0.8c0-0.2,0.1,0,0.3,0.2c0.2,0.2,0.3,0.4,0.5,0.3c0.2-0.1,0.5-0.2,0.4-0.5c-0.1-0.1-0.8-0.7-0.8-0.8
				c0-0.1,0.2,0,0.4,0.1c0.2,0.2,0.5,0.1,0.5,0.5c0.1,0.6,0.8,0.3,1.2,0.8c0.2,0.2,0.3,0,0.4-0.3c0.1-0.2-0.1-0.3,0.1-0.5
				c0.2-0.1,0.4-0.1,0.4,0.1c0.1,0.2,0.2,0.4,0.3,0.7c0.1,0.2,0.6,0.6,0.7,0.6c0.3,0-0.1-0.5-0.1-0.6c0-0.2,0.1-0.5,0.2-0.5
				c0.1,0,0.2,0,0.5-0.2c0.3-0.2,0-0.2,0-0.5c0-0.3,0.2-0.1,0.2-0.1c0.2,0.3,0.5,0.1,0.5,0c0,0,0-0.1,0-0.2c-0.5-2-2.3-3.5-4.4-3.5
				c-0.9,0-1.8,0.3-2.5,0.7c0.5,0,1.6-0.2,1.5,0.2c-0.1,0.4,0.7,0.5,0.3,0.7c-0.2,0.1-0.7,0.4-0.8,0.4c-0.3-0.2,0.6-0.4,0.4-0.5
				c-0.2-0.1-0.5,0-0.8,0.1c-0.1,0-0.7,0-0.9,0.1c-0.2,0.1-0.4,0.2-0.4,0.4c0.1,0.2,0.6,0.3,0.7,0.3s0.2,0,0.4-0.3
				c0.2-0.2,0.4,0,0.4,0c-0.1,0-0.2,0.1-0.3,0.3c-0.1,0.1-0.3,0.2-0.5,0.1c-0.2-0.1-0.6,0-0.7,0c-0.1,0-0.3,0.2-0.3,0.2
				c-0.1,0-0.2,0.1-0.1,0.1c0,0.1,0,0.1,0,0.2c0,0-0.1,0.1-0.2,0.1c-0.1-0.1-0.4,0-0.5,0.1c0,0,0,0.1,0,0.1c0,0.2,0.1,0.4,0.3,0.2
				c0.1-0.1,0.5-0.1,0.8-0.3c0.1-0.1,0.3,0,0.3,0.1c0,0.1,0.2,0.5,0.3,0.4c0.1,0-0.1-0.4,0-0.4c0.1,0,0.2,0.3,0.3,0.3
				c0.2-0.1,0.3-0.1,0.3,0.1c0,0.1-0.1,0.2-0.3,0.3c-0.2,0.1-0.7-0.1-0.9-0.2C26.7,61,26.3,61,26.3,61L26,61.1c0,0,0,0.1-0.2,0.4
				c0,0,0,0,0,0c0,0.2,0,0.3,0,0.5c0,0.6,0.1,1.2,0.4,1.8c0,0,0,0,0,0c0.3,0.1,0.2,0,0.4,0c0.2-0.1,0.3-0.3,0.5-0.1
				c0.1,0.2,0.3,0.1,0.3,0.4c0,0.3,0.3-0.2,0.3,0.2c0.1,0.6,0.2,0.3,0.2,0.4c0,0.3,0,0.8,0.2,0.9c0.2,0,0.5-0.1,0.6-0.2
				c0.1-0.1,0.2-0.2,0.3-0.6C29,64.2,29.1,64.4,29.1,64.2z"/>
			<path class="st0" d="M34.5,61.3c-0.1,0,0.1,0.2,0.1,0.3c-0.4,0.5,0.1,1.2,0.2,1.2c0.1-0.3,0.1-0.6,0.1-0.9c0-0.1,0-0.2,0-0.3
				C34.8,61.4,34.7,61.3,34.5,61.3z"/>
			<path class="st0" d="M26.8,59.7c0.1-0.1,0.4-0.2,0.3-0.3c0-0.1-0.2-0.1-0.3-0.1c-0.1,0-0.3,0-0.4,0.1c0,0,0,0,0,0
				c-0.1,0.2-0.2,0.4-0.3,0.7c0,0,0.1,0,0.1,0C26.4,60.2,26.6,59.9,26.8,59.7z"/>
			<path class="st0" d="M34.5,63.1c-0.1-0.2-0.2,0.1-0.8,0.3c-0.2,0-0.4,0.1-0.8,0.2c-0.3,0.1-0.6,0.6-0.5,1
				c0.2,0.4,0.1,0.7,0.4,0.4c0.4-0.2,0.1,0,0.2,0.1c0.1,0,0.1-0.2,0.3,0c0.1,0,0.1,0,0.1,0.1c0.5-0.5,0.8-1,1-1.6
				c0-0.1,0-0.2-0.1-0.3C34.5,63.2,34.5,63.2,34.5,63.1z"/>
		</g>
	</g>
	<g>
		<path class="st1" d="M98.4,181H3.1v-58.8h95.3V181z M4.1,180h93.3v-56.8H4.1V180z"/>
	</g>
</g>
</svg>
