<?xml version="1.0" encoding="utf-8"?>
<!-- Generator: Adobe Illustrator 22.1.0, SVG Export Plug-In . SVG Version: 6.00 Build 0)  -->
<svg version="1.1" xmlns="http://www.w3.org/2000/svg" xmlns:xlink="http://www.w3.org/1999/xlink" x="0px" y="0px"
	 viewBox="0 0 101.5 175.3" style="enable-background:new 0 0 101.5 175.3;" xml:space="preserve">
<style type="text/css">
	.st0{fill:#FFFFFF;}
	.st1{fill:#3F7E44;}
</style>
<g id="WHITE_BG">
	<rect class="st0" width="101.5" height="175.4"/>
</g>
<g id="TARGETS">
	<g>
		<path class="st1" d="M7,132.2v-6.4h1v6.4H7z"/>
		<path class="st1" d="M12.8,132.2l-2.8-4.5l0,4.5H9.1v-6.4h0.9l2.8,4.5l0-4.5h0.9v6.4H12.8z"/>
		<path class="st1" d="M16.9,126.7v5.5h-1v-5.5h-1.7v-0.9h4.3v0.9H16.9z"/>
		<path class="st1" d="M22.8,129.3h-2.7v2h2.9v0.9h-3.9v-6.4h3.9v0.9h-2.9v1.8h2.7V129.3z"/>
		<path class="st1" d="M23.8,129c0-2,0.7-3.3,2.6-3.3c0.9,0,1.5,0.2,1.8,0.3v0.9c-0.6-0.2-1.1-0.4-1.7-0.4c-1.3,0-1.8,0.9-1.8,2.4
			c0,1.6,0.5,2.4,1.8,2.4c0.4,0,0.7-0.1,0.9-0.1v-1.7h-1.1v-0.9h2.1v3.2c-0.3,0.2-1.1,0.4-2,0.4C24.5,132.3,23.8,131,23.8,129z"/>
		<path class="st1" d="M30.3,132.2h-1v-6.4h2.1c1.6,0,2.2,0.7,2.2,1.9c0,0.8-0.3,1.4-1,1.7l1.3,2.8h-1.1l-1.2-2.6h-1.3V132.2z
			 M30.3,128.8h1.3c0.9,0,1-0.5,1-1c0-0.5-0.1-1-1-1h-1.3V128.8z"/>
		<path class="st1" d="M38.2,129.3h-2.7v2h2.9v0.9h-3.9v-6.4h3.9v0.9h-2.9v1.8h2.7V129.3z"/>
		<path class="st1" d="M40.2,132.2h-1v-6.4h2.1c1.6,0,2.2,0.7,2.2,1.9c0,0.8-0.3,1.4-1,1.7l1.3,2.8h-1.1l-1.2-2.6h-1.3V132.2z
			 M40.2,128.8h1.3c0.9,0,1-0.5,1-1c0-0.5-0.1-1-1-1h-1.3V128.8z"/>
		<path class="st1" d="M47.7,130.7h-2l-0.5,1.6h-1l2-6.5h1l2,6.5h-1L47.7,130.7z M46.7,127l-0.8,2.8h1.6L46.7,127z"/>
		<path class="st1" d="M10.1,139.7h-2l-0.5,1.6h-1l2-6.5h1l2,6.5h-1L10.1,139.7z M9.1,133.3c0.5,0,0.8,0.2,0.8,0.7
			c0,0.5-0.4,0.7-0.8,0.7s-0.8-0.2-0.8-0.7C8.2,133.4,8.6,133.3,9.1,133.3z M9.1,136l-0.8,2.8h1.6L9.1,136z M9.1,133.8
			c-0.2,0-0.3,0.1-0.3,0.1c0,0.1,0.1,0.1,0.3,0.1s0.3-0.1,0.3-0.1C9.4,133.9,9.3,133.8,9.1,133.8z"/>
		<path class="st1" d="M13.8,135.7v5.5h-1v-5.5h-1.7v-0.9h4.3v0.9H13.8z"/>
		<path class="st1" d="M15.7,138c0-2,0.7-3.3,2.6-3.3c0.9,0,1.5,0.2,1.8,0.3v0.9c-0.6-0.2-1.1-0.4-1.7-0.4c-1.3,0-1.8,0.9-1.8,2.4
			c0,1.6,0.5,2.4,1.8,2.4c0.4,0,0.7-0.1,0.9-0.1v-1.7h-1.1v-0.9h2.1v3.2c-0.3,0.2-1.1,0.4-2,0.4C16.4,141.3,15.7,140,15.7,138z"/>
		<path class="st1" d="M24.4,139.7h-2l-0.5,1.6h-1l2-6.5h1l2,6.5h-1L24.4,139.7z M22.5,133.4c0.3,0,0.6,0.3,0.6,0.6
			c0,0.3-0.3,0.6-0.6,0.6c-0.3,0-0.6-0.3-0.6-0.6C21.9,133.6,22.1,133.4,22.5,133.4z M23.4,136l-0.8,2.8h1.6L23.4,136z M24.3,133.4
			c0.3,0,0.6,0.3,0.6,0.6c0,0.3-0.3,0.6-0.6,0.6c-0.3,0-0.6-0.3-0.6-0.6C23.7,133.6,23.9,133.4,24.3,133.4z"/>
		<path class="st1" d="M27.5,141.2h-1v-6.4h2.1c1.6,0,2.2,0.7,2.2,1.9c0,0.8-0.3,1.4-1,1.7l1.3,2.8H30l-1.2-2.6h-1.3V141.2z
			 M27.5,137.8h1.3c0.9,0,1-0.5,1-1c0-0.5-0.1-1-1-1h-1.3V137.8z"/>
		<path class="st1" d="M31.7,141.2v-6.4h1.9c2.1,0,2.7,1.4,2.7,3.2c0,1.8-0.6,3.2-2.7,3.2H31.7z M32.7,140.3h1
			c1.3,0,1.7-0.9,1.7-2.3c0-1.4-0.4-2.3-1.7-2.3h-1V140.3z"/>
		<path class="st1" d="M40.8,138.3h-2.7v2h2.9v0.9h-3.9v-6.4h3.9v0.9h-2.9v1.8h2.7V138.3z"/>
		<path class="st1" d="M42.8,141.2h-1v-6.4H44c1.6,0,2.2,0.7,2.2,1.9c0,0.8-0.3,1.4-1,1.7l1.3,2.8h-1.1l-1.2-2.6h-1.3V141.2z
			 M42.8,137.8h1.3c0.9,0,1-0.5,1-1c0-0.5-0.1-1-1-1h-1.3V137.8z"/>
		<path class="st1" d="M52.1,140.3h-0.9l-1.6-3.9l0,4.8h-1v-6.4h1.2l1.7,4.3l1.7-4.3h1.2v6.4h-1l0-4.8L52.1,140.3z"/>
		<path class="st1" d="M55.5,138c0-1.8,0.4-3.3,2.5-3.3c2,0,2.5,1.5,2.5,3.3s-0.4,3.3-2.5,3.3C55.9,141.3,55.5,139.8,55.5,138z
			 M56.4,138c0,1.5,0.3,2.4,1.5,2.4s1.5-0.9,1.5-2.4c0-1.5-0.3-2.4-1.5-2.4S56.4,136.5,56.4,138z"/>
		<path class="st1" d="M63.2,135.7v5.5h-1v-5.5h-1.7v-0.9h4.3v0.9H63.2z"/>
		<path class="st1" d="M8.3,147.4L7.8,148l0,2.2h-1v-6.4h1l0,3l2.3-3h1.2L9,146.7l2.6,3.6h-1.2L8.3,147.4z"/>
		<path class="st1" d="M13.1,149.3h2.8v0.9h-3.7v-6.4h1V149.3z"/>
		<path class="st1" d="M16.6,150.2v-6.4h1v6.4H16.6z"/>
		<path class="st1" d="M22,149.3h-0.9l-1.6-3.9l0,4.8h-1v-6.4h1.2l1.7,4.3l1.7-4.3h1.2v6.4h-1l0-4.8L22,149.3z"/>
		<path class="st1" d="M28.7,148.7h-2l-0.5,1.6h-1l2-6.5h1l2,6.5h-1L28.7,148.7z M27.7,145l-0.8,2.8h1.6L27.7,145z"/>
		<path class="st1" d="M32.4,144.7v5.5h-1v-5.5h-1.7v-0.9H34v0.9H32.4z"/>
		<path class="st1" d="M38.2,147.4h-2.6v2.8h-1v-6.4h3.8v0.9h-2.9v1.8h2.6V147.4z"/>
		<path class="st1" d="M39.1,147c0-1.8,0.4-3.3,2.5-3.3c2,0,2.5,1.5,2.5,3.3s-0.4,3.3-2.5,3.3C39.5,150.3,39.1,148.8,39.1,147z
			 M40.7,142.4c0.3,0,0.6,0.3,0.6,0.6c0,0.3-0.3,0.6-0.6,0.6c-0.3,0-0.6-0.3-0.6-0.6C40.1,142.6,40.4,142.4,40.7,142.4z M40.1,147
			c0,1.5,0.3,2.4,1.5,2.4s1.5-0.9,1.5-2.4c0-1.5-0.3-2.4-1.5-2.4S40.1,145.5,40.1,147z M42.5,142.4c0.3,0,0.6,0.3,0.6,0.6
			c0,0.3-0.3,0.6-0.6,0.6c-0.3,0-0.6-0.3-0.6-0.6C41.9,142.6,42.2,142.4,42.5,142.4z"/>
		<path class="st1" d="M45.9,150.2h-1v-6.4H47c1.6,0,2.2,0.7,2.2,1.9c0,0.8-0.3,1.4-1,1.7l1.3,2.8h-1.1l-1.2-2.6h-1.3V150.2z
			 M45.9,146.8h1.3c0.9,0,1-0.5,1-1c0-0.5-0.1-1-1-1h-1.3V146.8z"/>
		<path class="st1" d="M53.3,148.7h-2l-0.5,1.6h-1l2-6.5h1l2,6.5h-1L53.3,148.7z M51.4,142.4c0.3,0,0.6,0.3,0.6,0.6
			c0,0.3-0.3,0.6-0.6,0.6c-0.3,0-0.6-0.3-0.6-0.6C50.8,142.6,51.1,142.4,51.4,142.4z M52.3,145l-0.8,2.8h1.6L52.3,145z M53.2,142.4
			c0.3,0,0.6,0.3,0.6,0.6c0,0.3-0.3,0.6-0.6,0.6c-0.3,0-0.6-0.3-0.6-0.6C52.6,142.6,52.9,142.4,53.2,142.4z"/>
		<path class="st1" d="M59.2,150.2l-2.8-4.5l0,4.5h-0.9v-6.4h0.9l2.8,4.5l0-4.5H60v6.4H59.2z"/>
		<path class="st1" d="M61,150.2v-6.4h1.9c2.1,0,2.7,1.4,2.7,3.2c0,1.8-0.6,3.2-2.7,3.2H61z M61.9,149.3h1c1.3,0,1.7-0.9,1.7-2.3
			c0-1.4-0.4-2.3-1.7-2.3h-1V149.3z"/>
		<path class="st1" d="M67.4,150.2h-1v-6.4h2.1c1.6,0,2.2,0.7,2.2,1.9c0,0.8-0.3,1.4-1,1.7l1.3,2.8h-1.1l-1.2-2.6h-1.3V150.2z
			 M67.4,146.8h1.3c0.9,0,1-0.5,1-1c0-0.5-0.1-1-1-1h-1.3V146.8z"/>
		<path class="st1" d="M71.7,150.2v-6.4h1v6.4H71.7z"/>
		<path class="st1" d="M77.5,150.2l-2.8-4.5l0,4.5h-0.9v-6.4h0.9l2.8,4.5l0-4.5h0.9v6.4H77.5z"/>
		<path class="st1" d="M79.2,147c0-2,0.7-3.3,2.6-3.3c0.9,0,1.5,0.2,1.8,0.3v0.9c-0.6-0.2-1.1-0.4-1.7-0.4c-1.3,0-1.8,0.9-1.8,2.4
			c0,1.6,0.5,2.4,1.8,2.4c0.4,0,0.7-0.1,0.9-0.1v-1.7h-1.1v-0.9h2.1v3.2c-0.3,0.2-1.1,0.4-2,0.4C79.9,150.3,79.2,149,79.2,147z"/>
		<path class="st1" d="M87.9,148.7h-2l-0.5,1.6h-1l2-6.5h1l2,6.5h-1L87.9,148.7z M86.9,145l-0.8,2.8h1.6L86.9,145z"/>
		<path class="st1" d="M91,150.2h-1v-6.4h2.1c1.6,0,2.2,0.7,2.2,1.9c0,0.8-0.3,1.4-1,1.7l1.3,2.8h-1.1l-1.2-2.6H91V150.2z M91,146.8
			h1.3c0.9,0,1-0.5,1-1c0-0.5-0.1-1-1-1H91V146.8z"/>
		<path class="st1" d="M7,159.2v-6.4h1v6.4H7z"/>
		<path class="st1" d="M11.6,159.2h-1v-6.4h2c1.6,0,2.2,1,2.2,2c0,1-0.6,2-2.2,2h-1.1V159.2z M11.6,156h1.1c1,0,1.1-0.6,1.1-1.1
			c0-0.5-0.2-1.1-1.1-1.1h-1.1V156z"/>
		<path class="st1" d="M15.4,156c0-1.8,0.4-3.3,2.5-3.3c2,0,2.5,1.5,2.5,3.3s-0.4,3.3-2.5,3.3C15.8,159.3,15.4,157.8,15.4,156z
			 M16.4,156c0,1.5,0.3,2.4,1.5,2.4s1.5-0.9,1.5-2.4s-0.3-2.4-1.5-2.4S16.4,154.5,16.4,156z"/>
		<path class="st1" d="M22.2,158.3h2.8v0.9h-3.7v-6.4h1V158.3z"/>
		<path class="st1" d="M25.7,159.2v-6.4h1v6.4H25.7z"/>
		<path class="st1" d="M30.1,153.7v5.5h-1v-5.5h-1.7v-0.9h4.3v0.9H30.1z"/>
		<path class="st1" d="M32.5,159.2v-6.4h1v6.4H32.5z"/>
		<path class="st1" d="M36,156.4l-0.5,0.6l0,2.2h-1v-6.4h1l0,3l2.3-3H39l-2.3,2.8l2.6,3.6H38L36,156.4z"/>
		<path class="st1" d="M41.3,156c0-1.8,0.4-3.3,2.5-3.3c2,0,2.5,1.5,2.5,3.3s-0.4,3.3-2.5,3.3C41.7,159.3,41.3,157.8,41.3,156z
			 M42.3,156c0,1.5,0.3,2.4,1.5,2.4s1.5-0.9,1.5-2.4s-0.3-2.4-1.5-2.4S42.3,154.5,42.3,156z"/>
		<path class="st1" d="M49.6,152.7c0.8,0,1.2,0.1,1.5,0.3v0.9c-0.5-0.2-0.9-0.3-1.4-0.3c-1.2,0-1.7,0.8-1.7,2.4s0.5,2.4,1.7,2.4
			c0.6,0,1-0.1,1.4-0.3v0.9c-0.3,0.1-0.7,0.3-1.5,0.3c-1.9,0-2.6-1.2-2.6-3.3S47.8,152.7,49.6,152.7z"/>
		<path class="st1" d="M55.5,159.2v-2.9H53v2.9h-1v-6.4h1v2.6h2.6v-2.6h1v6.4H55.5z"/>
		<path class="st1" d="M7.8,168.2h-1v-6.4h2c1.6,0,2.2,1,2.2,2c0,1-0.6,2-2.2,2H7.8V168.2z M7.8,165H9c1,0,1.1-0.6,1.1-1.1
			s-0.2-1.1-1.1-1.1H7.8V165z"/>
		<path class="st1" d="M12.7,167.3h2.8v0.9h-3.7v-6.4h1V167.3z"/>
		<path class="st1" d="M19.3,166.7h-2l-0.5,1.6h-1l2-6.5h1l2,6.5h-1L19.3,166.7z M18.3,163.1l-0.8,2.8h1.6L18.3,163.1z"/>
		<path class="st1" d="M25.1,168.2l-2.8-4.5l0,4.5h-0.9v-6.4h0.9l2.8,4.5l0-4.5H26v6.4H25.1z"/>
		<path class="st1" d="M30.6,165.3h-2.7v2h2.9v0.9H27v-6.4h3.9v0.9h-2.9v1.8h2.7V165.3z"/>
		<path class="st1" d="M32.6,168.2h-1v-6.4h2.1c1.6,0,2.2,0.7,2.2,1.9c0,0.8-0.3,1.4-1,1.7l1.3,2.8h-1.1l-1.2-2.6h-1.3V168.2z
			 M32.6,164.8h1.3c0.9,0,1-0.5,1-1c0-0.5-0.1-1-1-1h-1.3V164.8z"/>
		<path class="st1" d="M37,168.2v-6.4h1v6.4H37z"/>
		<path class="st1" d="M42.7,168.2l-2.8-4.5l0,4.5h-0.9v-6.4h0.9l2.8,4.5l0-4.5h0.9v6.4H42.7z"/>
		<path class="st1" d="M44.5,165c0-2,0.7-3.3,2.6-3.3c0.9,0,1.5,0.2,1.8,0.3v0.9c-0.6-0.2-1.1-0.4-1.7-0.4c-1.3,0-1.8,0.9-1.8,2.4
			c0,1.6,0.5,2.4,1.8,2.4c0.4,0,0.7-0.1,0.9-0.1v-1.7H47v-0.9h2.1v3.2c-0.3,0.2-1.1,0.4-2,0.4C45.2,168.3,44.5,167,44.5,165z"/>
	</g>
	<rect x="3.3" y="24" class="st1" width="94.8" height="94.8"/>
	<path class="st1" d="M98.2,20.7H3.3V3.3h94.8V20.7z M4.3,19.7h92.8V4.3H4.3V19.7z"/>
	<g>
		<path class="st1" d="M11.7,10.2v4.4c0,1.5-0.6,2.5-2.3,2.5H6.9V7.6h2.5C11.1,7.6,11.7,8.7,11.7,10.2z M9.2,15.8
			c0.7,0,0.9-0.4,0.9-1v-5c0-0.6-0.3-1-0.9-1H8.5v6.9H9.2z"/>
		<path class="st1" d="M12.7,7.6h3.8v1.3h-2.2v2.7h1.6v1.3h-1.6v2.9h2.2v1.3h-3.8V7.6z"/>
		<path class="st1" d="M17.5,7.6h1.6v8.2H21v1.3h-3.5V7.6z"/>
		<path class="st1" d="M26.3,10.9L26.3,10.9l-1.1,6.2h-0.7l-1.2-6.2h0v6.2h-1.3V7.6h1.9l1,5.4h0l0.9-5.4h2v9.5h-1.5V10.9z"/>
		<path class="st1" d="M28.5,17.1l1.8-9.5h1.8l1.8,9.5h-1.6L32,15.4h-1.7L30,17.1H28.5z M31.2,5.3c0.6,0,1.1,0.5,1.1,1.1
			c0,0.6-0.4,1.1-1.1,1.1c-0.6,0-1.1-0.5-1.1-1.1C30.1,5.8,30.6,5.3,31.2,5.3z M30.5,14.1h1.3l-0.6-3.8h0L30.5,14.1z M31.2,6.8
			c0.3,0,0.4-0.2,0.4-0.5s-0.2-0.5-0.4-0.5c-0.3,0-0.4,0.2-0.4,0.5S31,6.8,31.2,6.8z"/>
		<path class="st1" d="M34.7,7.6h1.6v8.2h1.9v1.3h-3.5V7.6z"/>
	</g>
	<g>
		<path class="st1" d="M79.2,7.6v9.5h-1.6V9.8h0L76.5,11h0V9.3L78,7.6H79.2z"/>
		<path class="st1" d="M84.8,9.7v0.8c0,0.8-0.4,1.3-1.1,1.5c0.8,0.2,1.2,0.7,1.2,1.6v1.4c0,1.3-0.7,2.2-2.3,2.2
			c-1.6,0-2.2-0.9-2.2-2.4v-1.2h1.5V15c0,0.6,0.2,0.9,0.7,0.9c0.5,0,0.7-0.4,0.7-0.9v-1.6c0-0.5-0.2-0.8-0.8-0.8h-0.7v-1.2h0.6
			c0.5,0,0.9-0.3,0.9-0.8v-1c0-0.5-0.2-0.9-0.7-0.9c-0.5,0-0.7,0.3-0.7,0.9v1h-1.5V9.9c0-1.4,0.6-2.4,2.2-2.4
			C84.2,7.5,84.8,8.3,84.8,9.7z"/>
		<path class="st1" d="M87.6,11.2c0.6,0,1.1,0.5,1.1,1.1c0,0.6-0.5,1.2-1.1,1.2c-0.6,0-1.2-0.5-1.2-1.2
			C86.4,11.8,86.9,11.2,87.6,11.2z"/>
		<path class="st1" d="M90.1,15.4c0-0.9,0.3-1.6,1.2-2.5l0.9-1c0.5-0.5,0.6-0.9,0.6-1.6V9.5c0-0.6-0.3-0.7-0.6-0.7
			c-0.3,0-0.6,0.2-0.6,0.7v1.2h-1.5V9.6c0-1.3,0.7-2.1,2.1-2.1c1.4,0,2.1,0.6,2.1,2v0.9c0,1-0.2,1.5-1,2.4l-1,1.1
			c-0.4,0.4-0.7,0.7-0.7,1.5v0.4h2.6v1.3h-4.1V15.4z"/>
	</g>
	<g>
		<path class="st0" d="M68.2,46.1c-0.9,0-1.6,0.7-1.6,1.6v10.6c0,0.9,0.7,1.6,1.6,1.6c0.9,0,1.6-0.7,1.6-1.6V47.8
			C69.8,46.9,69.1,46.1,68.2,46.1z"/>
		<path class="st0" d="M89.3,46.1c-0.9,0-1.6,0.7-1.6,1.6v10.6c0,0.9,0.7,1.6,1.6,1.6c0.9,0,1.6-0.7,1.6-1.6V47.8
			C90.9,46.9,90.2,46.1,89.3,46.1z"/>
		<path class="st0" d="M86.1,47.4H71.5c-0.2,0-0.4,0.2-0.4,0.4l0,10.4c0,0.2,0.2,0.4,0.4,0.4h5.6l-0.7,40.9c0,0.2,0.2,0.4,0.4,0.4
			l3.9,0c0.2,0,0.4-0.2,0.4-0.4l-0.9-40.9h5.8c0.2,0,0.4-0.2,0.4-0.4l0-10.4C86.5,47.6,86.3,47.4,86.1,47.4z"/>
	</g>
	<g>
		<g>
			<polygon class="st0" points="18.7,48.3 15.9,48.3 15.9,103.1 55.2,103.1 55.2,99.8 18.7,99.8 			"/>
			<path class="st0" d="M21.8,45v51.5H58h3V41.6H21.8V45z M56.3,86.9c0,0.1-0.1,0.2-0.3,0.2h-29c-0.2,0-0.3-0.1-0.3-0.2v-4.6
				c0-0.1,0.1-0.2,0.3-0.2h29c0.2,0,0.3,0.1,0.3,0.2V86.9z M56.3,78.8c0,0.1-0.1,0.2-0.3,0.2h-29c-0.2,0-0.3-0.1-0.3-0.2v-4.6
				c0-0.1,0.1-0.2,0.3-0.2h29c0.2,0,0.3,0.1,0.3,0.2V78.8z M56.2,58.4c-1.1,1.5-5.8,7.4-14.7,7.4c-8.9,0-13.7-5.9-14.7-7.4
				c0-0.1-0.1-0.1-0.1-0.2c0,0,0.1-0.1,0.1-0.2c1.1-1.5,5.8-7.4,14.7-7.4c8.9,0,13.7,5.9,14.7,7.4c0,0.1,0.1,0.1,0.1,0.2
				C56.2,58.3,56.2,58.3,56.2,58.4z"/>
		</g>
		<g>
			<path class="st0" d="M40.2,60.2c0,0.1-0.3,1.2-0.1,1.3c0.2,0.1,0.4-0.9,0.5-1.1C41,59.7,40.5,59.7,40.2,60.2z"/>
			<path class="st0" d="M46.2,59.1c0-0.1-0.2-0.3-0.3-0.4c-0.1-0.1-0.3,0-0.2,0.2c0.1,0.2,0.1,0.2,0.2,0.2
				C45.9,59.2,46.2,59.2,46.2,59.1z"/>
			<path class="st0" d="M43.4,63.7c-0.2,0.1-1.5-0.6-2.5-0.5c-0.4,0-1,0.2-1.2,0.7c0,0.1,0,0.2,0.1,0.3c0.6,0.2,1.1,0.2,1.7,0.2
				c1.4,0,2.7-0.5,3.7-1.3c-0.1-0.1-0.1-0.1-0.6-0.1C44,63,43.6,63.5,43.4,63.7z"/>
			<path class="st0" d="M47.1,59.9c-0.1-0.3-0.3,0.2-1,0.4c-0.3,0.1-0.6,0.1-1.1,0.3c-0.4,0.1-0.9,0.8-0.6,1.3
				c0.2,0.6,0.1,0.9,0.6,0.6c0.5-0.3,0.1,0.1,0.3,0.1c0.2,0.1,0.1-0.2,0.5,0c0.1,0,0.1,0.1,0.2,0.1c0.6-0.6,1.1-1.4,1.4-2.2
				c0-0.2-0.1-0.3-0.1-0.4C47.1,60,47.1,59.9,47.1,59.9z"/>
			<path class="st0" d="M47.6,57.9c-0.1-0.3-0.2-0.5-0.5-0.4c-0.1,0,0.2,0.3,0.1,0.4c-0.5,0.6,0.1,1.6,0.3,1.6
				c0.1-0.4,0.1-0.8,0.1-1.3C47.6,58.1,47.6,58,47.6,57.9z"/>
			<path class="st0" d="M42.7,58.8c-0.1,0-0.3,0.2-0.2,0.3c0.2,0.1,0.5,0.2,0.6,0.1C43.3,59.1,42.9,58.8,42.7,58.8z"/>
			<path class="st0" d="M39.8,61.3C39.9,61,40,61,40,60.6c0-0.4,0-0.5,0.3-0.8c0.3-0.3,0.2-0.1,0.3-0.4c0.1-0.3-0.2-0.3-0.4-0.5
				c-0.3-0.2-0.6-0.7-0.6-1c0-0.2,0.1,0,0.4,0.3c0.3,0.3,0.4,0.5,0.7,0.5c0.3-0.1,0.7-0.3,0.6-0.6c-0.1-0.2-1.1-1-1-1.1
				c0.1-0.2,0.2,0,0.5,0.2c0.3,0.2,0.7,0.2,0.7,0.6c0.1,0.8,1,0.4,1.6,1.1c0.2,0.3,0.3,0,0.5-0.3c0.2-0.3-0.1-0.5,0.1-0.6
				c0.2-0.2,0.5-0.1,0.6,0.2c0.1,0.3,0.2,0.6,0.4,0.9c0.1,0.3,0.9,0.8,1,0.8c0.4,0-0.1-0.6-0.2-0.9c0-0.2,0.1-0.7,0.3-0.7
				c0.2-0.1,0.3,0,0.7-0.3c0.4-0.3,0-0.3,0-0.7c0-0.4,0.3-0.2,0.3-0.1c0.2,0.4,0.7,0.2,0.7-0.1c0-0.1,0-0.2,0-0.3
				c-0.7-2.7-3.1-4.7-6-4.7c-1.2,0-2.4,0.4-3.3,1c0.7-0.1,2.2-0.3,2,0.3C40,53.9,41,54,40.5,54.3c-0.2,0.1-0.9,0.6-1,0.5
				c-0.4-0.2,0.8-0.5,0.6-0.7c-0.2-0.2-0.7,0-1.1,0.1c-0.2,0-0.9,0-1.2,0.2c-0.3,0.1-0.6,0.3-0.5,0.5c0.1,0.2,0.8,0.4,0.9,0.4
				c0.1,0,0.3,0,0.5-0.3c0.3-0.3,0.6,0,0.5,0c-0.1,0-0.3,0.2-0.4,0.4c-0.1,0.1-0.4,0.3-0.6,0.1c-0.3-0.1-0.8-0.1-0.9,0
				c-0.1,0.1-0.4,0.3-0.5,0.3c-0.1,0-0.2,0.1-0.2,0.2c0,0.1,0.1,0.2,0,0.3c-0.1,0.1-0.2,0.2-0.3,0.1c-0.1-0.1-0.6-0.1-0.7,0.1
				c0,0,0,0.1,0,0.2c0,0.2,0.1,0.6,0.4,0.3c0.1-0.1,0.7-0.1,1.1-0.4c0.2-0.2,0.4,0.1,0.4,0.1c0,0.1,0.3,0.6,0.4,0.6
				c0.1,0-0.2-0.5-0.1-0.5c0.1,0,0.3,0.4,0.4,0.4c0.2-0.2,0.4-0.1,0.5,0.1c0,0.2-0.2,0.3-0.4,0.4c-0.3,0.1-0.9-0.2-1.3-0.3
				c-0.4-0.2-1-0.3-1-0.3l-0.4,0.1c0,0,0,0.1-0.3,0.5c0,0,0,0,0,0.1c0,0.2,0,0.4,0,0.6c0,0.9,0.2,1.7,0.5,2.4c0,0,0,0,0,0
				c0.3,0.1,0.2,0.1,0.5-0.1c0.2-0.1,0.5-0.3,0.6-0.1c0.2,0.2,0.3,0.1,0.4,0.5c0,0.3,0.4-0.2,0.4,0.3c0.1,0.8,0.3,0.4,0.3,0.5
				c0,0.4,0,1.1,0.3,1.2c0.3,0,0.7-0.2,0.8-0.3c0.1-0.1,0.3-0.3,0.4-0.8C39.6,61.4,39.8,61.6,39.8,61.3z"/>
			<path class="st0" d="M36.6,55.3c0.1-0.1,0.5-0.3,0.5-0.4c0-0.1-0.2-0.2-0.4-0.2c-0.2,0-0.4,0.1-0.5,0.2c0,0,0,0,0,0
				c-0.2,0.3-0.3,0.6-0.5,0.9c0,0,0.1,0,0.2,0C36.1,55.9,36.4,55.5,36.6,55.3z"/>
			<path class="st0" d="M46.5,59.8c0.1-0.1-0.2-0.4-0.4-0.4c-0.1,0-0.3,0.2-0.2,0.3C46.1,59.8,46.4,59.9,46.5,59.8z"/>
			<path class="st0" d="M36.7,54.6c0.2,0,0.5-0.2,0.7-0.3c0,0,0.1-0.3,0.1-0.4c0-0.1-0.1-0.1-0.2-0.1c-0.1,0-0.2,0-0.3,0.1
				c0,0-0.3,0.4-0.4,0.5C36.5,54.4,36.5,54.5,36.7,54.6z"/>
		</g>
	</g>
	<g>
		<path class="st1" d="M98.2,171.9h-95v-49.7h95V171.9z M4.2,170.9h93v-47.7h-93V170.9z"/>
	</g>
</g>
</svg>
