<?xml version="1.0" encoding="utf-8"?>
<!-- Generator: Adobe Illustrator 22.1.0, SVG Export Plug-In . SVG Version: 6.00 Build 0)  -->
<svg version="1.1" xmlns="http://www.w3.org/2000/svg" xmlns:xlink="http://www.w3.org/1999/xlink" x="0px" y="0px"
	 viewBox="0 0 101.5 166.2" style="enable-background:new 0 0 101.5 166.2;" xml:space="preserve">
<style type="text/css">
	.st0{fill:#FFFFFF;}
	.st1{fill:#3F7E44;}
</style>
<g id="WHITE_BG">
	<rect x="0" y="0" class="st0" width="101.5" height="166.1"/>
</g>
<g id="TARGETS">
	<g>
		<path class="st1" d="M6.8,129c0-1.8,0.4-3.3,2.5-3.3c2,0,2.5,1.5,2.5,3.3s-0.4,3.3-2.5,3.3C7.2,132.3,6.8,130.8,6.8,129z
			 M8.4,124.4c0.3,0,0.6,0.3,0.6,0.6c0,0.3-0.3,0.6-0.6,0.6c-0.3,0-0.6-0.3-0.6-0.6C7.7,124.6,8,124.4,8.4,124.4z M7.8,129
			c0,1.5,0.3,2.4,1.5,2.4s1.5-0.9,1.5-2.4c0-1.5-0.3-2.4-1.5-2.4S7.8,127.5,7.8,129z M10.2,124.4c0.3,0,0.6,0.3,0.6,0.6
			c0,0.3-0.3,0.6-0.6,0.6c-0.3,0-0.6-0.3-0.6-0.6C9.5,124.6,9.8,124.4,10.2,124.4z"/>
		<path class="st1" d="M13.9,129.4l-0.5,0.6l0,2.2h-1v-6.4h1l0,3l2.3-3h1.2l-2.3,2.8l2.6,3.6h-1.2L13.9,129.4z"/>
		<path class="st1" d="M20.8,130.7h-2l-0.5,1.6h-1l2-6.5h1l2,6.5h-1L20.8,130.7z M19.7,127l-0.8,2.8h1.6L19.7,127z"/>
		<path class="st1" d="M25.7,129.4l-0.5,0.6l0,2.2h-1v-6.4h1l0,3l2.3-3h1.2l-2.3,2.8l2.6,3.6h-1.2L25.7,129.4z"/>
		<path class="st1" d="M29.3,130.2v-4.4h1v4.3c0,1.2,0.8,1.3,1.4,1.3c0.5,0,1.4-0.1,1.4-1.3v-4.3h1v4.4c0,1.8-1.4,2.1-2.3,2.1
			C30.7,132.3,29.3,132,29.3,130.2z"/>
		<path class="st1" d="M38.4,132.2l-2.8-4.5l0,4.5h-0.9v-6.4h0.9l2.8,4.5l0-4.5h0.9v6.4H38.4z"/>
		<path class="st1" d="M44.3,130.3c0,1.2-0.7,2-2.4,2c-0.6,0-1.5-0.1-1.9-0.4v-1c0.3,0.2,1,0.4,1.8,0.4c1.1,0,1.5-0.5,1.5-1.1
			c0-0.7-0.3-0.9-1.2-1c-1.6-0.2-2.2-0.6-2.2-1.8c0-0.9,0.5-1.8,2.3-1.8c0.8,0,1.4,0.1,1.7,0.3v0.9c-0.5-0.2-1-0.3-1.7-0.3
			c-1,0-1.3,0.4-1.3,1c0,0.7,0.4,0.8,1.2,0.9C43.5,128.7,44.3,129,44.3,130.3z"/>
		<path class="st1" d="M46.4,129.4l-0.5,0.6l0,2.2h-1v-6.4h1l0,3l2.3-3h1.2l-2.3,2.8l2.6,3.6h-1.2L46.4,129.4z"/>
		<path class="st1" d="M53.2,130.7h-2l-0.5,1.6h-1l2-6.5h1l2,6.5h-1L53.2,130.7z M52.2,127l-0.8,2.8H53L52.2,127z"/>
		<path class="st1" d="M56.2,132.2h-1v-6.4h2c1.6,0,2.2,1,2.2,2c0,1-0.6,2-2.2,2h-1.1V132.2z M56.2,129h1.1c1,0,1.1-0.6,1.1-1.1
			c0-0.5-0.2-1.1-1.1-1.1h-1.1V129z"/>
		<path class="st1" d="M61.4,129c0-1.8,0.4-3.3,2.5-3.3c2,0,2.5,1.5,2.5,3.3s-0.4,3.3-2.5,3.3C61.8,132.3,61.4,130.8,61.4,129z
			 M62.3,129c0,1.5,0.3,2.4,1.5,2.4s1.5-0.9,1.5-2.4c0-1.5-0.3-2.4-1.5-2.4S62.3,127.5,62.3,129z"/>
		<path class="st1" d="M69.6,125.7c0.8,0,1.2,0.1,1.5,0.3v0.9c-0.5-0.2-0.9-0.3-1.4-0.3c-1.2,0-1.7,0.8-1.7,2.4
			c0,1.6,0.5,2.4,1.7,2.4c0.6,0,1-0.1,1.4-0.3v0.9c-0.3,0.1-0.7,0.3-1.5,0.3c-1.9,0-2.6-1.2-2.6-3.3S67.7,125.7,69.6,125.7z"/>
		<path class="st1" d="M75.3,132.2v-2.9h-2.6v2.9h-1v-6.4h1v2.6h2.6v-2.6h1v6.4H75.3z"/>
		<path class="st1" d="M8.3,138.4L7.8,139l0,2.2h-1v-6.4h1l0,3l2.3-3h1.2L9,137.7l2.6,3.6h-1.2L8.3,138.4z"/>
		<path class="st1" d="M15.2,139.7h-2l-0.5,1.6h-1l2-6.5h1l2,6.5h-1L15.2,139.7z M14.2,136l-0.8,2.8H15L14.2,136z"/>
		<path class="st1" d="M18.2,141.2h-1v-6.4h2c1.6,0,2.2,1,2.2,2c0,1-0.6,2-2.2,2h-1.1V141.2z M18.2,138h1.1c1,0,1.1-0.6,1.1-1.1
			c0-0.5-0.2-1.1-1.1-1.1h-1.1V138z"/>
		<path class="st1" d="M24.5,139.7h-2l-0.5,1.6h-1l2-6.5h1l2,6.5h-1L24.5,139.7z M23.5,136l-0.8,2.8h1.6L23.5,136z"/>
		<path class="st1" d="M28.9,134.7c0.8,0,1.2,0.1,1.5,0.3v0.9c-0.5-0.2-0.9-0.3-1.4-0.3c-1.2,0-1.7,0.8-1.7,2.4
			c0,1.6,0.5,2.4,1.7,2.4c0.6,0,1-0.1,1.4-0.3v0.9c-0.3,0.1-0.7,0.3-1.5,0.3c-1.9,0-2.6-1.2-2.6-3.3S27,134.7,28.9,134.7z"/>
		<path class="st1" d="M31.2,141.2v-6.4h1v6.4H31.2z"/>
		<path class="st1" d="M35.5,135.7v5.5h-1v-5.5h-1.7v-0.9h4.3v0.9H35.5z"/>
		<path class="st1" d="M41.3,138.3h-2.7v2h2.9v0.9h-3.9v-6.4h3.9v0.9h-2.9v1.8h2.7V138.3z"/>
		<path class="st1" d="M44.6,135.7v5.5h-1v-5.5H42v-0.9h4.3v0.9H44.6z"/>
		<path class="st1" d="M51.5,138.4H49v2.8h-1v-6.4h3.8v0.9H49v1.8h2.6V138.4z"/>
		<path class="st1" d="M52.3,138c0-1.8,0.4-3.3,2.5-3.3c2,0,2.5,1.5,2.5,3.3s-0.4,3.3-2.5,3.3C52.7,141.3,52.3,139.8,52.3,138z
			 M53.9,133.4c0.3,0,0.6,0.3,0.6,0.6c0,0.3-0.3,0.6-0.6,0.6c-0.3,0-0.6-0.3-0.6-0.6C53.3,133.6,53.6,133.4,53.9,133.4z M53.3,138
			c0,1.5,0.3,2.4,1.5,2.4s1.5-0.9,1.5-2.4c0-1.5-0.3-2.4-1.5-2.4S53.3,136.5,53.3,138z M55.7,133.4c0.3,0,0.6,0.3,0.6,0.6
			c0,0.3-0.3,0.6-0.6,0.6c-0.3,0-0.6-0.3-0.6-0.6C55.1,133.6,55.4,133.4,55.7,133.4z"/>
		<path class="st1" d="M58.9,141.2h-1v-6.4h2.1c1.6,0,2.2,0.7,2.2,1.9c0,0.8-0.3,1.4-1,1.7l1.3,2.8h-1.1l-1.2-2.6h-1.3V141.2z
			 M58.9,137.7h1.3c0.9,0,1-0.5,1-1c0-0.5-0.1-1-1-1h-1.3V137.7z"/>
		<path class="st1" d="M67.8,139.7h-2l-0.5,1.6h-1l2-6.5h1l2,6.5h-1L67.8,139.7z M66.7,136l-0.8,2.8h1.6L66.7,136z"/>
		<path class="st1" d="M71.3,135.7v5.5h-1v-5.5h-1.7v-0.9h4.3v0.9H71.3z"/>
		<path class="st1" d="M75.8,135.7v5.5h-1v-5.5h-1.7v-0.9h4.3v0.9H75.8z"/>
		<path class="st1" d="M10.4,150.2v-2.9H7.8v2.9h-1v-6.4h1v2.6h2.6v-2.6h1v6.4H10.4z"/>
		<path class="st1" d="M15.4,148.7h-2l-0.5,1.6h-1l2-6.5h1l2,6.5h-1L15.4,148.7z M14.4,145l-0.8,2.8h1.6L14.4,145z"/>
		<path class="st1" d="M21.1,150.2l-2.8-4.5l0,4.5h-0.9v-6.4h0.9l2.8,4.5l0-4.5H22v6.4H21.1z"/>
		<path class="st1" d="M25.1,144.7v5.5h-1v-5.5h-1.7v-0.9h4.3v0.9H25.1z"/>
		<path class="st1" d="M30.9,147.3h-2.7v2h2.9v0.9h-3.9v-6.4h3.9v0.9h-2.9v1.8h2.7V147.3z"/>
		<path class="st1" d="M32.9,150.2h-1v-6.4H34c1.6,0,2.2,0.7,2.2,1.9c0,0.8-0.3,1.4-1,1.7l1.3,2.8h-1.1l-1.2-2.6h-1.3V150.2z
			 M32.9,146.7h1.3c0.9,0,1-0.5,1-1c0-0.5-0.1-1-1-1h-1.3V146.7z"/>
		<path class="st1" d="M40.2,148.7h-2l-0.5,1.6h-1l2-6.5h1l2,6.5h-1L40.2,148.7z M39.2,145l-0.8,2.8H40L39.2,145z"/>
		<path class="st1" d="M45.1,147.4l-0.5,0.6l0,2.2h-1v-6.4h1l0,3l2.3-3h1.2l-2.3,2.8l2.6,3.6h-1.2L45.1,147.4z"/>
		<path class="st1" d="M49.7,149.3h2.8v0.9h-3.7v-6.4h1V149.3z"/>
		<path class="st1" d="M53.2,150.2v-6.4h1v6.4H53.2z"/>
		<path class="st1" d="M58.5,149.3h-0.9l-1.6-3.9l0,4.8h-1v-6.4h1.2l1.7,4.3l1.7-4.3H61v6.4h-1l0-4.8L58.5,149.3z"/>
		<path class="st1" d="M65,148.7h-2l-0.5,1.6h-1l2-6.5h1l2,6.5h-1L65,148.7z M64,145l-0.8,2.8h1.6L64,145z"/>
		<path class="st1" d="M68.5,144.7v5.5h-1v-5.5h-1.7v-0.9h4.3v0.9H68.5z"/>
		<path class="st1" d="M72.6,147.4h-2.2v-0.9h2.2V147.4z"/>
		<path class="st1" d="M10.4,156.4H7.8v2.8h-1v-6.4h3.8v0.9H7.8v1.8h2.6V156.4z"/>
		<path class="st1" d="M11.2,156c0-1.8,0.4-3.3,2.5-3.3c2,0,2.5,1.5,2.5,3.3c0,1.8-0.4,3.3-2.5,3.3C11.6,159.3,11.2,157.8,11.2,156z
			 M12.8,151.4c0.3,0,0.6,0.3,0.6,0.6c0,0.3-0.3,0.6-0.6,0.6c-0.3,0-0.6-0.3-0.6-0.6C12.2,151.6,12.4,151.4,12.8,151.4z M12.2,156
			c0,1.5,0.3,2.4,1.5,2.4s1.5-0.9,1.5-2.4s-0.3-2.4-1.5-2.4S12.2,154.5,12.2,156z M14.6,151.4c0.3,0,0.6,0.3,0.6,0.6
			c0,0.3-0.3,0.6-0.6,0.6c-0.3,0-0.6-0.3-0.6-0.6C14,151.6,14.2,151.4,14.6,151.4z"/>
		<path class="st1" d="M17.8,159.2h-1v-6.4h2.1c1.6,0,2.2,0.7,2.2,1.9c0,0.8-0.3,1.4-1,1.7l1.3,2.8h-1.1l-1.2-2.6h-1.3V159.2z
			 M17.8,155.7h1.3c0.9,0,1-0.5,1-1c0-0.5-0.1-1-1-1h-1.3V155.7z"/>
		<path class="st1" d="M25.2,157.6h-2l-0.5,1.6h-1l2-6.5h1l2,6.5h-1L25.2,157.6z M23.2,151.4c0.3,0,0.6,0.3,0.6,0.6
			c0,0.3-0.3,0.6-0.6,0.6c-0.3,0-0.6-0.3-0.6-0.6C22.6,151.6,22.9,151.4,23.2,151.4z M24.1,154l-0.8,2.8H25L24.1,154z M25,151.4
			c0.3,0,0.6,0.3,0.6,0.6c0,0.3-0.3,0.6-0.6,0.6c-0.3,0-0.6-0.3-0.6-0.6C24.4,151.6,24.7,151.4,25,151.4z"/>
		<path class="st1" d="M30.9,159.2l-2.8-4.5l0,4.5h-0.9v-6.4H28l2.8,4.5l0-4.5h0.9v6.4H30.9z"/>
		<path class="st1" d="M32.5,159.2v-6.4h1.9c2.1,0,2.7,1.4,2.7,3.2c0,1.8-0.6,3.2-2.7,3.2H32.5z M33.5,158.3h1
			c1.3,0,1.7-0.9,1.7-2.3c0-1.4-0.4-2.3-1.7-2.3h-1V158.3z"/>
		<path class="st1" d="M38.8,159.2h-1v-6.4h2.1c1.6,0,2.2,0.7,2.2,1.9c0,0.8-0.3,1.4-1,1.7l1.3,2.8h-1.1l-1.2-2.6h-1.3V159.2z
			 M38.8,155.7h1.3c0.9,0,1-0.5,1-1c0-0.5-0.1-1-1-1h-1.3V155.7z"/>
		<path class="st1" d="M43.1,159.2v-6.4h1v6.4H43.1z"/>
		<path class="st1" d="M48.7,159.2l-2.8-4.5l0,4.5H45v-6.4h0.9l2.8,4.5l0-4.5h0.9v6.4H48.7z"/>
		<path class="st1" d="M50.3,156c0-2,0.7-3.3,2.6-3.3c0.9,0,1.5,0.2,1.8,0.3v0.9c-0.6-0.2-1.1-0.4-1.7-0.4c-1.3,0-1.8,0.9-1.8,2.4
			c0,1.6,0.5,2.4,1.8,2.4c0.4,0,0.7-0.1,0.9-0.1v-1.7h-1.1v-0.9h2.1v3.2c-0.3,0.2-1.1,0.4-2,0.4C51,159.3,50.3,158,50.3,156z"/>
		<path class="st1" d="M58.8,157.6h-2l-0.5,1.6h-1l2-6.5h1l2,6.5h-1L58.8,157.6z M57.8,154l-0.8,2.8h1.6L57.8,154z"/>
		<path class="st1" d="M61.8,159.2h-1v-6.4h2.1c1.6,0,2.2,0.7,2.2,1.9c0,0.8-0.3,1.4-1,1.7l1.3,2.8h-1.1l-1.2-2.6h-1.3V159.2z
			 M61.8,155.7H63c0.9,0,1-0.5,1-1c0-0.5-0.1-1-1-1h-1.3V155.7z"/>
	</g>
	<rect x="3.3" y="24" class="st1" width="94.8" height="94.8"/>
	<path class="st1" d="M98.2,20.7H3.3V3.3h94.8V20.7z M4.3,19.7h92.8V4.3H4.3V19.7z"/>
	<g>
		<path class="st1" d="M11.7,10.2v4.4c0,1.5-0.6,2.5-2.3,2.5H6.9V7.6h2.5C11.1,7.6,11.7,8.7,11.7,10.2z M9.2,15.8
			c0.7,0,0.9-0.4,0.9-1v-5c0-0.6-0.3-1-0.9-1H8.5v6.9H9.2z"/>
		<path class="st1" d="M12.7,7.6h3.8v1.3h-2.2v2.7h1.6v1.3h-1.6v2.9h2.2v1.3h-3.8V7.6z"/>
		<path class="st1" d="M17.5,7.6h1.6v8.2H21v1.3h-3.5V7.6z"/>
		<path class="st1" d="M26.3,10.9L26.3,10.9l-1.1,6.2h-0.7l-1.2-6.2h0v6.2h-1.3V7.6h1.9l1,5.4h0l0.9-5.4h2v9.5h-1.5V10.9z"/>
		<path class="st1" d="M28.5,17.1l1.8-9.5h1.8l1.8,9.5h-1.6L32,15.4h-1.7L30,17.1H28.5z M31.2,5.3c0.6,0,1.1,0.5,1.1,1.1
			c0,0.6-0.4,1.1-1.1,1.1c-0.6,0-1.1-0.5-1.1-1.1C30.1,5.8,30.6,5.3,31.2,5.3z M30.5,14.1h1.3l-0.6-3.8h0L30.5,14.1z M31.2,6.8
			c0.3,0,0.4-0.2,0.4-0.5s-0.2-0.5-0.4-0.5c-0.3,0-0.4,0.2-0.4,0.5S31,6.8,31.2,6.8z"/>
		<path class="st1" d="M34.7,7.6h1.6v8.2h1.9v1.3h-3.5V7.6z"/>
	</g>
	<g>
		<path class="st1" d="M79,7.6v9.5h-1.6V9.8h0L76.2,11h0V9.3l1.5-1.7H79z"/>
		<path class="st1" d="M84.6,9.7v0.8c0,0.8-0.4,1.3-1.1,1.5c0.8,0.2,1.2,0.7,1.2,1.6v1.4c0,1.3-0.7,2.2-2.3,2.2
			c-1.6,0-2.2-0.9-2.2-2.4v-1.2h1.5V15c0,0.6,0.2,0.9,0.7,0.9c0.5,0,0.7-0.4,0.7-0.9v-1.6c0-0.5-0.2-0.8-0.8-0.8h-0.7v-1.2h0.6
			c0.5,0,0.9-0.3,0.9-0.8v-1c0-0.5-0.2-0.9-0.7-0.9c-0.5,0-0.7,0.3-0.7,0.9v1h-1.5V9.9c0-1.4,0.6-2.4,2.2-2.4
			C83.9,7.5,84.6,8.3,84.6,9.7z"/>
		<path class="st1" d="M87.3,11.2c0.6,0,1.1,0.5,1.1,1.1c0,0.6-0.5,1.2-1.1,1.2c-0.6,0-1.2-0.5-1.2-1.2
			C86.2,11.8,86.7,11.2,87.3,11.2z"/>
		<path class="st1" d="M94.3,9.7v0.8c0,0.8-0.4,1.3-1.1,1.5c0.8,0.2,1.2,0.7,1.2,1.6v1.4c0,1.3-0.7,2.2-2.3,2.2
			c-1.6,0-2.2-0.9-2.2-2.4v-1.2h1.5V15c0,0.6,0.2,0.9,0.7,0.9c0.5,0,0.7-0.4,0.7-0.9v-1.6c0-0.5-0.2-0.8-0.8-0.8h-0.7v-1.2h0.6
			c0.5,0,0.9-0.3,0.9-0.8v-1c0-0.5-0.2-0.9-0.7-0.9c-0.5,0-0.7,0.3-0.7,0.9v1H90V9.9c0-1.4,0.6-2.4,2.2-2.4
			C93.6,7.5,94.3,8.3,94.3,9.7z"/>
	</g>
	<g>
		<path class="st0" d="M81.1,79.7c0,1.5,1.2,2.8,2.8,2.8c1.5,0,2.8-1.2,2.8-2.8c0-1.5-1.2-2.8-2.8-2.8C82.3,77,81.1,78.2,81.1,79.7z
			"/>
		<path class="st0" d="M87.1,83.6c-0.1,0-0.1,0-0.2,0h-3h-3c-0.1,0-0.1,0-0.2,0c-1.9,0.2-3.4,1.8-3.4,3.7v0.9v0.4V95
			c0,0.6,0.5,1.1,1.1,1.1c0.6,0,1.1-0.5,1.1-1.1v-6.6c0-0.2,0.1-0.6,0.5-0.6c0.3,0,0.4,0.3,0.4,0.5v19.8c0,0.9,0.7,1.5,1.5,1.5
			c0.9,0,1.5-0.7,1.5-1.5V96.7c0-0.1,0.1-0.5,0.4-0.5h0c0.4,0,0.4,0.3,0.4,0.5v11.4c0,0.9,0.7,1.5,1.5,1.5c0.9,0,1.5-0.7,1.5-1.5
			V88.3c0-0.2,0.1-0.5,0.4-0.5c0.5,0,0.5,0.3,0.5,0.6V95c0,0.6,0.5,1.1,1.1,1.1c0.6,0,1.1-0.5,1.1-1.1v-6.4v-0.4v-0.9
			C90.5,85.3,89,83.7,87.1,83.6z"/>
		<path class="st0" d="M57.9,81.2c0,1.5,1.2,2.6,2.6,2.6c1.4,0,2.6-1.2,2.6-2.6c0-1.4-1.2-2.6-2.6-2.6
			C59.1,78.6,57.9,79.8,57.9,81.2z"/>
		<path class="st0" d="M63.7,88.7c0.3-0.1,0.4,0.4,0.4,0.4l1.8,5.9c0,0,0.3,1.3,1.4,0.9c1.1-0.3,0.7-1.6,0.7-1.6l-2.2-7.1
			c0,0-0.8-2.1-2.5-2.1h-2.8h-2.8c-1.7,0-2.5,2.1-2.5,2.1l-2.2,7.1c0,0-0.4,1.3,0.7,1.6c1.1,0.3,1.4-0.9,1.4-0.9L57,89
			c0,0,0.1-0.5,0.4-0.4c0.3,0.1,0.2,0.6,0.2,0.6l-3.1,11.1h2.8v8c0,0.8,0.6,1.4,1.4,1.4c0.8,0,1.4-0.6,1.4-1.4v-8h0.4h0.4v8
			c0,0.8,0.6,1.4,1.4,1.4c0.8,0,1.4-0.6,1.4-1.4v-8h2.8l-3.1-11.1C63.4,89.3,63.3,88.8,63.7,88.7z"/>
		<path class="st0" d="M42.2,81.2c0,1.5,1.2,2.6,2.6,2.6c1.4,0,2.6-1.2,2.6-2.6c0-1.4-1.2-2.6-2.6-2.6
			C43.4,78.6,42.2,79.7,42.2,81.2z"/>
		<path class="st0" d="M50.1,87.1c0,0-0.8-2.1-2.5-2.1h-2.8H42c-1.7,0-2.5,2.1-2.5,2.1l-2.2,7.1c0,0-0.4,1.3,0.7,1.6
			c1.1,0.3,1.4-0.9,1.4-0.9l1.8-5.9c0,0,0.1-0.5,0.4-0.4c0.3,0.1,0.2,0.6,0.2,0.6l-3.1,11.1h2.8v8c0,0.8,0.6,1.4,1.4,1.4
			c0.8,0,1.4-0.6,1.4-1.4v-8h0.4h0.4v8c0,0.8,0.6,1.4,1.4,1.4c0.8,0,1.4-0.6,1.4-1.4v-8h2.8l-3.1-11.1c0,0-0.1-0.5,0.2-0.6
			c0.3-0.1,0.4,0.4,0.4,0.4l1.8,5.9c0,0,0.3,1.3,1.4,0.9c1.1-0.3,0.7-1.6,0.7-1.6L50.1,87.1z"/>
		<path class="st0" d="M19.6,82.8c1.5,0,2.7-1.2,2.7-2.7c0-1.5-1.2-2.7-2.7-2.7c-1.5,0-2.7,1.2-2.7,2.7
			C16.8,81.6,18.1,82.8,19.6,82.8z"/>
		<path class="st0" d="M22.8,83.9c-0.1,0-0.1,0-0.2,0h-3h-3c-0.1,0-0.1,0-0.2,0C14.5,84,13,85.6,13,87.5v0.9v0.4v6.3
			c0,0.3,0.2,0.6,0.4,0.8L11,108.8c0,0.2,0.1,0.5,0.3,0.5c0,0,0,0,0.1,0c0.2,0,0.4-0.1,0.4-0.3l2.4-12.8c0.5-0.1,0.9-0.5,0.9-1v-6.5
			c0-0.2,0.1-0.6,0.5-0.6c0.3,0,0.4,0.3,0.4,0.5v19.6c0,0.8,0.7,1.5,1.5,1.5c0.8,0,1.5-0.7,1.5-1.5V96.9c0-0.1,0.1-0.4,0.4-0.4h0
			c0.4,0,0.4,0.3,0.4,0.4v11.3c0,0.8,0.7,1.5,1.5,1.5c0.8,0,1.5-0.7,1.5-1.5V88.6c0-0.2,0.1-0.5,0.4-0.5c0.4,0,0.5,0.3,0.5,0.6v6.5
			c0,0.6,0.5,1.1,1.1,1.1c0.6,0,1.1-0.5,1.1-1.1v-6.3v-0.4v-0.9C26.1,85.6,24.6,84,22.8,83.9z"/>
		<path class="st0" d="M70.3,93.4c0,1.2,1,2.2,2.2,2.2c1.2,0,2.2-1,2.2-2.2c0-1.2-1-2.2-2.2-2.2C71.3,91.2,70.3,92.2,70.3,93.4z"/>
		<path class="st0" d="M77,100c-1.3-3.5-1.6-3.4-2.8-3.5c0,0-3.4,0-3.4,0c-1.2,0-1.4,0-2.8,3.5c-0.2,0.5-1,2.4-1,2.5
			c0,0-0.3,0.8,0.4,1.1c0.7,0.2,0.9-0.6,0.9-0.6l1.4-3.4c0,0,0-0.1,0.1-0.1c0.1,0,0.1,0.1,0.1,0.1v8.8h0c0,0.7,0.5,1.2,1.1,1.2
			c0.7,0,1.1-0.5,1.1-1.2V105c0,0,0-0.5,0.3-0.5c0.4,0,0.3,0.5,0.3,0.5v3.5c0,0.7,0.5,1.2,1.1,1.2c0.7,0,1.1-0.5,1.1-1.2h0v-8.8
			c0-0.1,0-0.1,0-0.1c0.1,0,0.1,0.1,0.1,0.1l1.2,3c0,0,0.4,0.8,1,0.5c0.6-0.3,0.3-1,0.3-1C77.9,102.1,77.2,100.5,77,100z"/>
		<path class="st0" d="M36.2,94.4c-0.6-0.3-1,0.1-1.1,0.4c0,0-1.1,1.8-1.4,2.1c-0.4,0.4-0.7,0.3-0.7,0.3h-1.3h-1.3
			c0,0-0.3,0-0.7-0.3c-0.3-0.3-1.4-2.2-1.4-2.2c0,0-0.2-0.4-0.7-0.4c-0.4,0-0.8,0.4-0.8,0.8c0,0.1,0.1,0.4,0.1,0.4l2.2,4
			c0,0,0.1,0.3,0.1,0.5v0.6l0,0c0,0.3-0.1,0.7-0.1,0.7l-1.1,4.2h1.2v3.1h0c0,0.6,0.5,1.1,1.1,1.1c0.6,0,1.1-0.5,1.1-1.1v-3
			c0,0,0-0.1,0-0.1h0.3H32c0,0.1,0,0.1,0,0.1v3c0,0.6,0.5,1.1,1.1,1.1c0.6,0,1.1-0.5,1.1-1.1v-3.1h1.2l-1.1-4.2
			c-0.1-0.2-0.1-0.4-0.1-0.6v-0.1c0,0,0,0,0,0l0,0V100c0-0.3,0.1-0.5,0.1-0.5l2-3.7c0,0,0.1-0.3,0.2-0.4
			C36.7,95,36.7,94.6,36.2,94.4z"/>
		<path class="st0" d="M31.7,95.8c1.2,0,2.2-1,2.2-2.2c0-1.2-1-2.2-2.2-2.2c-1.2,0-2.2,1-2.2,2.2C29.5,94.8,30.5,95.8,31.7,95.8z"/>
		<path class="st0" d="M85,50.3c-2.4-3.4-13.5-17.1-34-17.1c-20.5,0-31.6,13.7-34,17.1c-0.1,0.1-0.2,0.3-0.3,0.4
			c0.1,0.1,0.2,0.2,0.3,0.4c2.4,3.4,13.5,17.1,34,17.1c20.5,0,31.6-13.7,34-17.1c0.1-0.1,0.2-0.3,0.3-0.4
			C85.2,50.6,85.1,50.5,85,50.3 M39.5,41.9c0.2-0.3,0.8-1,0.9-1.1c0.2-0.2,0.5-0.2,0.7-0.3c0.2,0,0.5,0.1,0.5,0.2
			c0,0.2-0.1,0.8-0.2,0.9c-0.3,0.3-1.1,0.8-1.5,0.7C39.6,42.2,39.4,42,39.5,41.9 M38.8,43.3C38.8,43.3,38.8,43.3,38.8,43.3
			c0.3-0.4,0.8-0.4,1.2-0.5c0.4-0.1,0.8,0.1,0.9,0.4c0.1,0.2-0.9,0.7-1.1,0.8c-0.5,0.5-1.3,1.4-1.7,1.5c-0.1,0-0.3,0-0.4,0
			C38,44.7,38.4,44,38.8,43.3 M46.5,59.1c-0.3,1.1-0.6,1.5-0.9,1.8c-0.3,0.3-1.3,0.8-2,0.7c-0.7,0-0.7-1.8-0.7-2.7
			c0-0.3-0.4,0.6-0.7-1.3c-0.1-1.2-0.9,0.1-1-0.7c-0.1-0.8-0.4-0.6-0.8-1.1c-0.4-0.5-0.9,0-1.5,0.3c-0.6,0.2-0.3,0.4-1.1,0.1
			c0,0,0,0-0.1,0c-0.7-1.7-1.1-3.6-1.1-5.6c0-0.5,0-1,0.1-1.4c0,0,0.1-0.1,0.1-0.1c0.8-0.9,0.7-1.1,0.7-1.1l0.8-0.3
			c0,0,1.3,0.2,2.3,0.6c0.8,0.3,2.1,1,2.9,0.7c0.5-0.2,1-0.5,0.9-1c-0.1-0.6-0.5-0.7-1.1-0.3c-0.2,0.1-0.6-0.9-1-0.8
			c-0.3,0.1,0.4,1.2,0.1,1.2c-0.3,0-0.9-1.2-1-1.4c-0.1-0.2-0.5-0.7-0.9-0.3c-0.8,0.8-2.2,0.8-2.5,1c-0.8,0.6-1.1-0.2-1-0.7
			c0-0.1,0.1-0.2,0.1-0.3c0.3-0.3,1.3-0.4,1.6-0.2c0.4,0.2,0.6-0.1,0.8-0.2c0.1-0.1,0.1-0.4,0-0.6c-0.1-0.2,0.2-0.3,0.4-0.4
			c0.2-0.1,0.8-0.5,1.1-0.6c0.3-0.1,1.6-0.3,2.2,0c0.6,0.3,1.1,0.1,1.4-0.3c0.4-0.4,0.8-0.8,1-0.9c0.2-0.1-0.5-0.8-1.1,0
			C44.1,44,43.8,44,43.6,44c-0.3,0-1.9-0.4-2.1-0.9c-0.2-0.5,0.5-0.9,1.1-1.2c0.6-0.3,2.3-0.3,2.7-0.4c0.9-0.2,2-0.6,2.5-0.2
			c0.6,0.4-2.3,1-1.4,1.5c0.3,0.2,1.9-0.9,2.4-1.2c1.2-0.6-1.2-0.8-0.9-2.1c0.4-1.5-3-0.9-4.6-0.8c2.2-1.4,4.9-2.3,7.7-2.3
			c6.8,0,12.4,4.7,13.9,11c0,0.3,0,0.5-0.1,0.7c-0.1,0.5-1.1,1-1.7,0.1c-0.1-0.2-0.8-0.8-0.7,0.2c0,1,1,1.1,0,1.7
			c-0.9,0.6-1.1,0.5-1.5,0.6c-0.4,0.1-0.8,1.2-0.7,1.7c0.1,0.5,1.4,2,0.4,2c-0.2,0-1.9-1.2-2.2-1.9c-0.3-0.8-0.6-1.6-0.9-2.2
			c-0.2-0.6-0.8-0.7-1.3-0.4c-0.5,0.3,0.1,0.7-0.2,1.4c-0.4,0.7-0.6,1.4-1.2,0.8c-1.4-1.6-3.4-0.8-3.7-2.6c-0.2-1-1-0.9-1.7-1.4
			c-0.7-0.5-1.1-0.8-1.2-0.4c-0.1,0.3,2.2,2.2,2.4,2.6c0.2,0.7-0.7,1.3-1.4,1.5c-0.7,0.2-1-0.4-1.6-1.1c-0.7-0.7-1-1.2-1-0.6
			c-0.1,0.8,0.6,1.9,1.3,2.4c0.6,0.4,1.2,0.5,1,1.1c-0.2,0.6,0,0.3-0.7,0.9c-0.6,0.6-0.8,0.9-0.7,1.7c0,0.9-0.2,0.9-0.3,1.7
			C47.1,58.7,46.7,58,46.5,59.1 M61.8,53.4c0.5,0,1.2,0.6,0.9,0.9c-0.3,0.3-1,0.2-1.4-0.1C61,53.9,61.6,53.4,61.8,53.4 M61.2,53
			c-0.2-0.1-0.3-0.2-0.4-0.6c-0.1-0.4,0.2-0.6,0.5-0.4c0.3,0.1,0.7,0.6,0.7,0.8C61.9,53.1,61.4,53,61.2,53 M54.9,52.9
			c-0.3,0.3-1,0.2-1.4-0.1c-0.4-0.3,0.2-0.7,0.4-0.8C54.4,52,55.2,52.7,54.9,52.9 M49,55.8c-0.2,0.3-0.7,2.7-1.1,2.4
			c-0.4-0.3,0.1-2.8,0.3-3C48.8,54.2,50,54.3,49,55.8 M51,65.1c-1.4,0-2.7-0.2-4-0.6c-0.2-0.1-0.3-0.4-0.2-0.7
			c0.4-1.2,1.8-1.6,2.8-1.7c2.3-0.2,5.4,1.5,5.9,1.2c0.5-0.3,1.5-1.6,2.9-1.5c1,0,1,0.2,1.3,0.3C57.3,64,54.3,65.1,51,65.1
			 M61.1,60.9c-0.1,0-0.3-0.1-0.4-0.2c-0.8-0.4-0.7,0.2-1.1,0.1c-0.4-0.1,0.4-1-0.7-0.3c-1.1,0.8-0.8-0.1-1.3-1.4
			c-0.5-1.3,0.6-2.7,1.5-3.1c1.2-0.5,2-0.5,2.6-0.7c1.7-0.4,2.1-1.4,2.4-0.8c0.1,0.1,0.1,0.2,0.2,0.3c0.1,0.2,0.2,0.6,0.2,0.9
			C63.6,57.8,62.5,59.5,61.1,60.9 M65,53.7c-0.4-0.1-2-2.3-0.7-3.8c0.2-0.2-0.4-0.9-0.3-1c0.7-0.1,1.1,0.4,1.2,1c0,0.3,0,0.6,0,0.8
			C65.3,51.8,65.2,52.8,65,53.7"/>
	</g>
	<g>
		<path class="st1" d="M98.3,162.9h-95v-40.8h95V162.9z M4.3,161.9h93v-38.8h-93V161.9z"/>
	</g>
</g>
</svg>
