<?xml version="1.0" encoding="utf-8"?>
<!-- Generator: Adobe Illustrator 22.1.0, SVG Export Plug-In . SVG Version: 6.00 Build 0)  -->
<svg version="1.1" xmlns="http://www.w3.org/2000/svg" xmlns:xlink="http://www.w3.org/1999/xlink" x="0px" y="0px"
	 viewBox="0 0 101.5 184.2" style="enable-background:new 0 0 101.5 184.2;" xml:space="preserve">
<style type="text/css">
	.st0{fill:#FFFFFF;}
	.st1{fill:#3F7E44;}
</style>
<g id="WHITE_BG">
	<rect class="st0" width="101.5" height="184.2"/>
</g>
<g id="TARGETS">
	<g>
		<path class="st1" d="M11.1,130.3c0,1.2-0.7,2-2.4,2c-0.6,0-1.5-0.1-1.9-0.4v-1c0.3,0.2,1,0.4,1.8,0.4c1.1,0,1.5-0.5,1.5-1.1
			c0-0.7-0.3-0.9-1.2-1c-1.6-0.2-2.2-0.6-2.2-1.8c0-0.9,0.5-1.8,2.3-1.8c0.8,0,1.4,0.1,1.7,0.3v0.9c-0.5-0.2-1-0.3-1.7-0.3
			c-1,0-1.3,0.4-1.3,1c0,0.7,0.4,0.8,1.2,0.9C10.3,128.7,11.1,129,11.1,130.3z"/>
		<path class="st1" d="M13.9,126.7v5.5h-1v-5.5h-1.7v-0.9h4.3v0.9H13.9z"/>
		<path class="st1" d="M18.8,130.7h-2l-0.5,1.6h-1l2-6.5h1l2,6.5h-1L18.8,130.7z M16.9,124.4c0.3,0,0.6,0.3,0.6,0.6
			c0,0.3-0.3,0.6-0.6,0.6c-0.3,0-0.6-0.3-0.6-0.6C16.2,124.6,16.5,124.4,16.9,124.4z M17.8,127l-0.8,2.8h1.6L17.8,127z M18.7,124.4
			c0.3,0,0.6,0.3,0.6,0.6c0,0.3-0.3,0.6-0.6,0.6c-0.3,0-0.6-0.3-0.6-0.6C18,124.6,18.3,124.4,18.7,124.4z"/>
		<path class="st1" d="M21.9,132.2h-1v-6.4H23c1.6,0,2.2,0.7,2.2,1.9c0,0.8-0.3,1.4-1,1.7l1.3,2.8h-1.1l-1.2-2.6h-1.3V132.2z
			 M21.9,128.8h1.3c0.9,0,1-0.5,1-1c0-0.5-0.1-1-1-1h-1.3V128.8z"/>
		<path class="st1" d="M27.6,129.4l-0.5,0.6l0,2.2h-1v-6.4h1l0,3l2.3-3h1.2l-2.3,2.8l2.6,3.6h-1.2L27.6,129.4z"/>
		<path class="st1" d="M36.3,131.3h-0.9l-1.6-3.9l0,4.8h-1v-6.4h1.2l1.7,4.3l1.7-4.3h1.2v6.4h-1l0-4.8L36.3,131.3z"/>
		<path class="st1" d="M39.7,129c0-1.8,0.4-3.3,2.5-3.3c2,0,2.5,1.5,2.5,3.3s-0.4,3.3-2.5,3.3C40.1,132.3,39.7,130.8,39.7,129z
			 M40.7,129c0,1.5,0.3,2.4,1.5,2.4s1.5-0.9,1.5-2.4c0-1.5-0.3-2.4-1.5-2.4S40.7,127.5,40.7,129z"/>
		<path class="st1" d="M47.5,126.7v5.5h-1v-5.5h-1.7v-0.9h4.3v0.9H47.5z"/>
		<path class="st1" d="M54,130.3c0,1.2-0.7,2-2.4,2c-0.6,0-1.5-0.1-1.9-0.4v-1c0.3,0.2,1,0.4,1.8,0.4c1.1,0,1.5-0.5,1.5-1.1
			c0-0.7-0.3-0.9-1.2-1c-1.6-0.2-2.2-0.6-2.2-1.8c0-0.9,0.5-1.8,2.3-1.8c0.8,0,1.4,0.1,1.7,0.3v0.9c-0.5-0.2-1-0.3-1.7-0.3
			c-1,0-1.3,0.4-1.3,1c0,0.7,0.4,0.8,1.2,0.9C53.2,128.7,54,129,54,130.3z"/>
		<path class="st1" d="M56.8,126.7v5.5h-1v-5.5h-1.7v-0.9h4.3v0.9H56.8z"/>
		<path class="st1" d="M61.7,130.7h-2l-0.5,1.6h-1l2-6.5h1l2,6.5h-1L61.7,130.7z M60.7,124.3c0.5,0,0.8,0.2,0.8,0.7
			c0,0.5-0.4,0.7-0.8,0.7s-0.8-0.2-0.8-0.7C59.8,124.4,60.2,124.3,60.7,124.3z M60.7,127l-0.8,2.8h1.6L60.7,127z M60.7,124.8
			c-0.2,0-0.3,0.1-0.3,0.1c0,0.1,0.1,0.1,0.3,0.1s0.3-0.1,0.3-0.1C61,124.9,60.9,124.8,60.7,124.8z"/>
		<path class="st1" d="M67.5,132.2l-2.8-4.5l0,4.5h-0.9v-6.4h0.9l2.8,4.5l0-4.5h0.9v6.4H67.5z"/>
		<path class="st1" d="M69.3,132.2v-6.4h1.9c2.1,0,2.7,1.4,2.7,3.2c0,1.8-0.6,3.2-2.7,3.2H69.3z M70.3,131.3h1
			c1.3,0,1.7-0.9,1.7-2.3c0-1.4-0.4-2.3-1.7-2.3h-1V131.3z"/>
		<path class="st1" d="M78.9,130.3c0,1.2-0.7,2-2.4,2c-0.6,0-1.5-0.1-1.9-0.4v-1c0.3,0.2,1,0.4,1.8,0.4c1.1,0,1.5-0.5,1.5-1.1
			c0-0.7-0.3-0.9-1.2-1c-1.6-0.2-2.2-0.6-2.2-1.8c0-0.9,0.5-1.8,2.3-1.8c0.8,0,1.4,0.1,1.7,0.3v0.9c-0.5-0.2-1-0.3-1.7-0.3
			c-1,0-1.3,0.4-1.3,1c0,0.7,0.4,0.8,1.2,0.9C78.2,128.7,78.9,129,78.9,130.3z"/>
		<path class="st1" d="M81.6,129.4h-2.2v-0.9h2.2V129.4z"/>
		<path class="st1" d="M8.3,138.4L7.8,139l0,2.2h-1v-6.4h1l0,3l2.3-3h1.2L9,137.7l2.6,3.6h-1.2L8.3,138.4z"/>
		<path class="st1" d="M13.1,141.2h-1v-6.4h2.1c1.6,0,2.2,0.7,2.2,1.9c0,0.8-0.3,1.4-1,1.7l1.3,2.8h-1.1l-1.2-2.6h-1.3V141.2z
			 M13.1,137.8h1.3c0.9,0,1-0.5,1-1c0-0.5-0.1-1-1-1h-1.3V137.8z"/>
		<path class="st1" d="M20.5,139.7h-2l-0.5,1.6h-1l2-6.5h1l2,6.5h-1L20.5,139.7z M19.5,136l-0.8,2.8h1.6L19.5,136z"/>
		<path class="st1" d="M26.2,138.4h-2.6v2.8h-1v-6.4h3.8v0.9h-2.9v1.8h2.6V138.4z"/>
		<path class="st1" d="M29.5,135.7v5.5h-1v-5.5h-1.7v-0.9h4.3v0.9H29.5z"/>
		<path class="st1" d="M35.4,138.3h-2.7v2h2.9v0.9h-3.9v-6.4h3.9v0.9h-2.9v1.8h2.7V138.3z"/>
		<path class="st1" d="M40.2,141.2l-2.8-4.5l0,4.5h-0.9v-6.4h0.9l2.8,4.5l0-4.5h0.9v6.4H40.2z"/>
		<path class="st1" d="M47.1,140.3h-0.9l-1.6-3.9l0,4.8h-1v-6.4h1.2l1.7,4.3l1.7-4.3h1.2v6.4h-1l0-4.8L47.1,140.3z"/>
		<path class="st1" d="M50.4,138c0-1.8,0.4-3.3,2.5-3.3c2,0,2.5,1.5,2.5,3.3s-0.4,3.3-2.5,3.3C50.8,141.3,50.4,139.8,50.4,138z
			 M51.4,138c0,1.5,0.3,2.4,1.5,2.4s1.5-0.9,1.5-2.4c0-1.5-0.3-2.4-1.5-2.4S51.4,136.5,51.4,138z"/>
		<path class="st1" d="M58.2,135.7v5.5h-1v-5.5h-1.7v-0.9h4.3v0.9H58.2z"/>
		<path class="st1" d="M61.8,138c0-1.8,0.4-3.3,2.5-3.3c2,0,2.5,1.5,2.5,3.3s-0.4,3.3-2.5,3.3C62.2,141.3,61.8,139.8,61.8,138z
			 M62.8,138c0,1.5,0.3,2.4,1.5,2.4s1.5-0.9,1.5-2.4c0-1.5-0.3-2.4-1.5-2.4S62.8,136.5,62.8,138z"/>
		<path class="st1" d="M70.1,134.7c0.8,0,1.2,0.1,1.5,0.3v0.9c-0.5-0.2-0.9-0.3-1.4-0.3c-1.2,0-1.7,0.8-1.7,2.4s0.5,2.4,1.7,2.4
			c0.6,0,1-0.1,1.4-0.3v0.9c-0.3,0.1-0.7,0.3-1.5,0.3c-1.9,0-2.6-1.2-2.6-3.3S68.2,134.7,70.1,134.7z"/>
		<path class="st1" d="M76,141.2v-2.9h-2.6v2.9h-1v-6.4h1v2.6H76v-2.6h1v6.4H76z"/>
		<path class="st1" d="M10.1,148.7h-2l-0.5,1.6h-1l2-6.5h1l2,6.5h-1L10.1,148.7z M9.1,145l-0.8,2.8h1.6L9.1,145z"/>
		<path class="st1" d="M15.9,150.2l-2.8-4.5l0,4.5h-0.9v-6.4h0.9l2.8,4.5l0-4.5h0.9v6.4H15.9z"/>
		<path class="st1" d="M18.7,150.2h-1v-6.4h2c1.6,0,2.2,1,2.2,2c0,1-0.6,2-2.2,2h-1.1V150.2z M18.7,147h1.1c1,0,1.1-0.6,1.1-1.1
			c0-0.5-0.2-1.1-1.1-1.1h-1.1V147z"/>
		<path class="st1" d="M25.2,148.7h-2l-0.5,1.6h-1l2-6.5h1l2,6.5h-1L25.2,148.7z M24.2,145l-0.8,2.8H25L24.2,145z"/>
		<path class="st1" d="M31.3,148.3c0,1.2-0.7,2-2.4,2c-0.6,0-1.5-0.1-1.9-0.4v-1c0.3,0.2,1,0.4,1.8,0.4c1.1,0,1.5-0.5,1.5-1.1
			c0-0.7-0.3-0.9-1.2-1c-1.6-0.2-2.2-0.6-2.2-1.8c0-0.9,0.5-1.8,2.3-1.8c0.8,0,1.4,0.1,1.7,0.3v0.9c-0.5-0.2-1-0.3-1.7-0.3
			c-1,0-1.3,0.4-1.3,1c0,0.7,0.4,0.8,1.2,0.9C30.5,146.7,31.3,147,31.3,148.3z"/>
		<path class="st1" d="M36.3,148.3c0,1.2-0.7,2-2.4,2c-0.6,0-1.5-0.1-1.9-0.4v-1c0.3,0.2,1,0.4,1.8,0.4c1.1,0,1.5-0.5,1.5-1.1
			c0-0.7-0.3-0.9-1.2-1c-1.6-0.2-2.2-0.6-2.2-1.8c0-0.9,0.5-1.8,2.3-1.8c0.8,0,1.4,0.1,1.7,0.3v0.9c-0.5-0.2-1-0.3-1.7-0.3
			c-1,0-1.3,0.4-1.3,1c0,0.7,0.4,0.8,1.2,0.9C35.5,146.7,36.3,147,36.3,148.3z"/>
		<path class="st1" d="M40.8,150.2l-2.8-4.5l0,4.5h-0.9v-6.4H38l2.8,4.5l0-4.5h0.9v6.4H40.8z"/>
		<path class="st1" d="M42.7,150.2v-6.4h1v6.4H42.7z"/>
		<path class="st1" d="M48.5,150.2l-2.8-4.5l0,4.5h-0.9v-6.4h0.9l2.8,4.5l0-4.5h0.9v6.4H48.5z"/>
		<path class="st1" d="M50.2,147c0-2,0.7-3.3,2.6-3.3c0.9,0,1.5,0.2,1.8,0.3v0.9c-0.6-0.2-1.1-0.4-1.7-0.4c-1.3,0-1.8,0.9-1.8,2.4
			c0,1.6,0.5,2.4,1.8,2.4c0.4,0,0.7-0.1,0.9-0.1v-1.7h-1.1v-0.9h2.1v3.2c-0.3,0.2-1.1,0.4-2,0.4C50.9,150.3,50.2,149,50.2,147z"/>
		<path class="st1" d="M59.9,148.3c0,1.2-0.7,2-2.4,2c-0.6,0-1.5-0.1-1.9-0.4v-1c0.3,0.2,1,0.4,1.8,0.4c1.1,0,1.5-0.5,1.5-1.1
			c0-0.7-0.3-0.9-1.2-1c-1.6-0.2-2.2-0.6-2.2-1.8c0-0.9,0.5-1.8,2.3-1.8c0.8,0,1.4,0.1,1.7,0.3v0.9c-0.5-0.2-1-0.3-1.7-0.3
			c-1,0-1.3,0.4-1.3,1c0,0.7,0.4,0.8,1.2,0.9C59.1,146.7,59.9,147,59.9,148.3z"/>
		<path class="st1" d="M62.6,147.4h-2.2v-0.9h2.2V147.4z"/>
		<path class="st1" d="M10.4,156.4H7.8v2.8h-1v-6.4h3.8v0.9H7.8v1.8h2.6V156.4z"/>
		<path class="st1" d="M11.3,156c0-1.8,0.4-3.3,2.5-3.3c2,0,2.5,1.5,2.5,3.3s-0.4,3.3-2.5,3.3C11.8,159.3,11.3,157.8,11.3,156z
			 M12.9,151.4c0.3,0,0.6,0.3,0.6,0.6s-0.3,0.6-0.6,0.6c-0.3,0-0.6-0.3-0.6-0.6S12.6,151.4,12.9,151.4z M12.3,156
			c0,1.5,0.3,2.4,1.5,2.4s1.5-0.9,1.5-2.4s-0.3-2.4-1.5-2.4S12.3,154.5,12.3,156z M14.7,151.4c0.3,0,0.6,0.3,0.6,0.6
			s-0.3,0.6-0.6,0.6c-0.3,0-0.6-0.3-0.6-0.6S14.4,151.4,14.7,151.4z"/>
		<path class="st1" d="M18.1,159.2h-1v-6.4h2.1c1.6,0,2.2,0.7,2.2,1.9c0,0.8-0.3,1.4-1,1.7l1.3,2.8h-1.1l-1.2-2.6h-1.3V159.2z
			 M18.1,155.8h1.3c0.9,0,1-0.5,1-1c0-0.5-0.1-1-1-1h-1.3V155.8z"/>
		<path class="st1" d="M25.7,158.3h-0.9l-1.6-3.9l0,4.8h-1v-6.4h1.2l1.7,4.3l1.7-4.3h1.2v6.4h-1l0-4.8L25.7,158.3z"/>
		<path class="st1" d="M32.4,157.7h-2l-0.5,1.6h-1l2-6.5h1l2,6.5h-1L32.4,157.7z M31.4,151.3c0.5,0,0.8,0.2,0.8,0.7
			s-0.4,0.7-0.8,0.7s-0.8-0.2-0.8-0.7S30.9,151.3,31.4,151.3z M31.4,154.1l-0.8,2.8h1.6L31.4,154.1z M31.4,151.8
			c-0.2,0-0.3,0.1-0.3,0.1s0.1,0.1,0.3,0.1s0.3-0.1,0.3-0.1S31.6,151.8,31.4,151.8z"/>
		<path class="st1" d="M34.3,156c0-2,0.7-3.3,2.6-3.3c0.9,0,1.5,0.2,1.8,0.3v0.9c-0.6-0.2-1.1-0.4-1.7-0.4c-1.3,0-1.8,0.9-1.8,2.4
			c0,1.6,0.5,2.4,1.8,2.4c0.4,0,0.7-0.1,0.9-0.1v-1.7h-1.1v-0.9h2.1v3.2c-0.3,0.2-1.1,0.4-2,0.4C35,159.3,34.3,158,34.3,156z"/>
		<path class="st1" d="M42.9,157.7h-2l-0.5,1.6h-1l2-6.5h1l2,6.5h-1L42.9,157.7z M41.9,154.1l-0.8,2.8h1.6L41.9,154.1z"/>
		<path class="st1" d="M48.8,159.2l-2.8-4.5l0,4.5h-0.9v-6.4h0.9l2.8,4.5l0-4.5h0.9v6.4H48.8z"/>
		<path class="st1" d="M54.3,153.7v5.5h-1v-5.5h-1.7v-0.9h4.3v0.9H54.3z"/>
		<path class="st1" d="M56.7,159.2v-6.4h1v6.4H56.7z"/>
		<path class="st1" d="M59.7,158.3h2.8v0.9h-3.7v-6.4h1V158.3z"/>
		<path class="st1" d="M64.1,158.3h2.8v0.9h-3.7v-6.4h1V158.3z"/>
		<path class="st1" d="M8.3,165.4L7.8,166l0,2.2h-1v-6.4h1l0,3l2.3-3h1.2L9,164.7l2.6,3.6h-1.2L8.3,165.4z"/>
		<path class="st1" d="M13.1,167.3h2.8v0.9h-3.7v-6.4h1V167.3z"/>
		<path class="st1" d="M16.6,168.2v-6.4h1v6.4H16.6z"/>
		<path class="st1" d="M22,167.3h-0.9l-1.6-3.9l0,4.8h-1v-6.4h1.2l1.7,4.3l1.7-4.3h1.2v6.4h-1l0-4.8L22,167.3z"/>
		<path class="st1" d="M28.7,166.7h-2l-0.5,1.6h-1l2-6.5h1l2,6.5h-1L28.7,166.7z M27.7,163.1l-0.8,2.8h1.6L27.7,163.1z"/>
		<path class="st1" d="M32.4,162.7v5.5h-1v-5.5h-1.7v-0.9H34v0.9H32.4z"/>
		<path class="st1" d="M35.6,168.2h-1v-6.4h2.1c1.6,0,2.2,0.7,2.2,1.9c0,0.8-0.3,1.4-1,1.7l1.3,2.8h-1.1l-1.2-2.6h-1.3V168.2z
			 M35.6,164.8h1.3c0.9,0,1-0.5,1-1c0-0.5-0.1-1-1-1h-1.3V164.8z"/>
		<path class="st1" d="M43.5,165.3h-2.7v2h2.9v0.9h-3.9v-6.4h3.9v0.9h-2.9v1.8h2.7V165.3z"/>
		<path class="st1" d="M45.5,167.3h2.8v0.9h-3.7v-6.4h1V167.3z"/>
		<path class="st1" d="M52.2,166.7h-2l-0.5,1.6h-1l2-6.5h1l2,6.5h-1L52.2,166.7z M51.2,163.1l-0.8,2.8H52L51.2,163.1z"/>
		<path class="st1" d="M55.8,162.7v5.5h-1v-5.5h-1.7v-0.9h4.3v0.9H55.8z"/>
		<path class="st1" d="M61.8,165.3h-2.7v2H62v0.9h-3.9v-6.4H62v0.9h-2.9v1.8h2.7V165.3z"/>
		<path class="st1" d="M63.8,168.2h-1v-6.4h2.1c1.6,0,2.2,0.7,2.2,1.9c0,0.8-0.3,1.4-1,1.7l1.3,2.8h-1.1l-1.2-2.6h-1.3V168.2z
			 M63.8,164.8h1.3c0.9,0,1-0.5,1-1c0-0.5-0.1-1-1-1h-1.3V164.8z"/>
		<path class="st1" d="M71.3,166.7h-2l-0.5,1.6h-1l2-6.5h1l2,6.5h-1L71.3,166.7z M70.3,163.1l-0.8,2.8h1.6L70.3,163.1z"/>
		<path class="st1" d="M73.4,168.2v-6.4h1.9c2.1,0,2.7,1.4,2.7,3.2c0,1.8-0.6,3.2-2.7,3.2H73.4z M74.4,167.3h1
			c1.3,0,1.7-0.9,1.7-2.3c0-1.4-0.4-2.3-1.7-2.3h-1V167.3z"/>
		<path class="st1" d="M82.5,165.3h-2.7v2h2.9v0.9h-3.9v-6.4h3.9v0.9h-2.9v1.8h2.7V165.3z"/>
		<path class="st1" d="M8.3,174.4L7.8,175l0,2.2h-1v-6.4h1l0,3l2.3-3h1.2L9,173.7l2.6,3.6h-1.2L8.3,174.4z"/>
		<path class="st1" d="M15.3,175.7h-2l-0.5,1.6h-1l2-6.5h1l2,6.5h-1L15.3,175.7z M14.3,172.1l-0.8,2.8h1.6L14.3,172.1z"/>
		<path class="st1" d="M19,171.7v5.5h-1v-5.5h-1.7v-0.9h4.3v0.9H19z"/>
		<path class="st1" d="M23.8,175.7h-2l-0.5,1.6h-1l2-6.5h1l2,6.5h-1L23.8,175.7z M22.8,172.1l-0.8,2.8h1.6L22.8,172.1z"/>
		<path class="st1" d="M30,175.3c0,1.2-0.7,2-2.4,2c-0.6,0-1.5-0.1-1.9-0.4v-1c0.3,0.2,1,0.4,1.8,0.4c1.1,0,1.5-0.5,1.5-1.1
			c0-0.7-0.3-0.9-1.2-1c-1.6-0.2-2.2-0.6-2.2-1.8c0-0.9,0.5-1.8,2.3-1.8c0.8,0,1.4,0.1,1.7,0.3v0.9c-0.5-0.2-1-0.3-1.7-0.3
			c-1,0-1.3,0.4-1.3,1c0,0.7,0.4,0.8,1.2,0.9C29.2,173.7,30,174,30,175.3z"/>
		<path class="st1" d="M32.8,171.7v5.5h-1v-5.5h-1.7v-0.9h4.3v0.9H32.8z"/>
		<path class="st1" d="M36.1,177.2h-1v-6.4h2.1c1.6,0,2.2,0.7,2.2,1.9c0,0.8-0.3,1.4-1,1.7l1.3,2.8h-1.1l-1.2-2.6h-1.3V177.2z
			 M36.1,173.8h1.3c0.9,0,1-0.5,1-1c0-0.5-0.1-1-1-1h-1.3V173.8z"/>
		<path class="st1" d="M40.3,174c0-1.8,0.4-3.3,2.5-3.3c2,0,2.5,1.5,2.5,3.3s-0.4,3.3-2.5,3.3C40.7,177.3,40.3,175.8,40.3,174z
			 M41.2,174c0,1.5,0.3,2.4,1.5,2.4s1.5-0.9,1.5-2.4s-0.3-2.4-1.5-2.4S41.2,172.5,41.2,174z"/>
		<path class="st1" d="M49.6,174.4H47v2.8h-1v-6.4h3.8v0.9H47v1.8h2.6V174.4z"/>
		<path class="st1" d="M54.2,174.3h-2.7v2h2.9v0.9h-3.9v-6.4h3.9v0.9h-2.9v1.8h2.7V174.3z"/>
		<path class="st1" d="M56.2,177.2h-1v-6.4h2.1c1.6,0,2.2,0.7,2.2,1.9c0,0.8-0.3,1.4-1,1.7l1.3,2.8h-1.1l-1.2-2.6h-1.3V177.2z
			 M56.2,173.8h1.3c0.9,0,1-0.5,1-1c0-0.5-0.1-1-1-1h-1.3V173.8z"/>
	</g>
	<rect x="3.3" y="24" class="st1" width="94.8" height="94.8"/>
	<path class="st1" d="M98.2,20.7H3.3V3.3h94.8V20.7z M4.3,19.7h92.8V4.3H4.3V19.7z"/>
	<g>
		<path class="st1" d="M11.7,10.2v4.4c0,1.5-0.6,2.5-2.3,2.5H6.9V7.6h2.5C11.1,7.6,11.7,8.7,11.7,10.2z M9.2,15.8
			c0.7,0,0.9-0.4,0.9-1v-5c0-0.6-0.3-1-0.9-1H8.5v6.9H9.2z"/>
		<path class="st1" d="M12.7,7.6h3.8v1.3h-2.2v2.7h1.6v1.3h-1.6v2.9h2.2v1.3h-3.8V7.6z"/>
		<path class="st1" d="M17.5,7.6h1.6v8.2H21v1.3h-3.5V7.6z"/>
		<path class="st1" d="M26.3,10.9L26.3,10.9l-1.1,6.2h-0.7l-1.2-6.2h0v6.2h-1.3V7.6h1.9l1,5.4h0l0.9-5.4h2v9.5h-1.5V10.9z"/>
		<path class="st1" d="M28.5,17.1l1.8-9.5h1.8l1.8,9.5h-1.6L32,15.4h-1.7L30,17.1H28.5z M31.2,5.3c0.6,0,1.1,0.5,1.1,1.1
			c0,0.6-0.4,1.1-1.1,1.1c-0.6,0-1.1-0.5-1.1-1.1C30.1,5.8,30.6,5.3,31.2,5.3z M30.5,14.1h1.3l-0.6-3.8h0L30.5,14.1z M31.2,6.8
			c0.3,0,0.4-0.2,0.4-0.5s-0.2-0.5-0.4-0.5c-0.3,0-0.4,0.2-0.4,0.5S31,6.8,31.2,6.8z"/>
		<path class="st1" d="M34.7,7.6h1.6v8.2h1.9v1.3h-3.5V7.6z"/>
	</g>
	<g>
		<path class="st1" d="M80.6,7.6v9.5H79V9.8h0L77.9,11h0V9.3l1.5-1.7H80.6z"/>
		<path class="st1" d="M86.3,9.7v0.8c0,0.8-0.4,1.3-1.1,1.5c0.8,0.2,1.2,0.7,1.2,1.6v1.4c0,1.3-0.7,2.2-2.3,2.2
			c-1.6,0-2.2-0.9-2.2-2.4v-1.2h1.5V15c0,0.6,0.2,0.9,0.7,0.9c0.5,0,0.7-0.4,0.7-0.9v-1.6c0-0.5-0.2-0.8-0.8-0.8h-0.7v-1.2h0.6
			c0.5,0,0.9-0.3,0.9-0.8v-1c0-0.5-0.2-0.9-0.7-0.9c-0.5,0-0.7,0.3-0.7,0.9v1h-1.5V9.9c0-1.4,0.6-2.4,2.2-2.4
			C85.6,7.5,86.3,8.3,86.3,9.7z"/>
		<path class="st1" d="M89,11.2c0.6,0,1.1,0.5,1.1,1.1c0,0.6-0.5,1.2-1.1,1.2c-0.6,0-1.2-0.5-1.2-1.2C87.8,11.8,88.4,11.2,89,11.2z"
			/>
		<path class="st1" d="M94.1,7.6v9.5h-1.6V9.8h0L91.4,11h0V9.3l1.5-1.7H94.1z"/>
	</g>
	<g>
		<g>
			<path class="st0" d="M59.3,72.4c0.1,0,0.7,0,1.6,0v4.4c0,0.1,0.1,0.1,0.1,0.1h2c0.1,0,0.1-0.1,0.1-0.1v-4.4c1.7,0,3.2,0,3.2,0
				c2.1,0,3.8-1.7,3.8-3.8c0-1-0.4-1.9-1-2.6c1.1-0.6,1.8-1.8,1.8-3.1c0-2-1.6-3.5-3.5-3.5c-0.1,0-0.2,0-0.2,0
				C67,56.9,64.9,55,62.4,55c-2.6,0-4.8,2.1-4.8,4.8c0,0.7,0.2,1.5,0.5,2.1c-2.4,0.5-4.2,2.7-4.2,5.2C53.9,70,56.3,72.4,59.3,72.4z"
				/>
			<path class="st0" d="M52.8,79.2c0,0.5,0.4,0.9,0.9,0.9c0.5,0,0.9-0.4,0.9-0.9c0-0.5-0.4-0.9-0.9-0.9
				C53.2,78.3,52.8,78.7,52.8,79.2z"/>
			<path class="st0" d="M57,79.2c0,0.5,0.4,0.9,0.9,0.9s0.9-0.4,0.9-0.9c0-0.5-0.4-0.9-0.9-0.9S57,78.7,57,79.2z"/>
			<path class="st0" d="M61.2,79.2c0,0.5,0.4,0.9,0.9,0.9c0.5,0,0.9-0.4,0.9-0.9c0-0.5-0.4-0.9-0.9-0.9
				C61.6,78.3,61.2,78.7,61.2,79.2z"/>
			<path class="st0" d="M66.3,80.1c0.5,0,0.9-0.4,0.9-0.9c0-0.5-0.4-0.9-0.9-0.9c-0.5,0-0.9,0.4-0.9,0.9
				C65.3,79.7,65.8,80.1,66.3,80.1z"/>
			<path class="st0" d="M69.5,79.2c0,0.5,0.4,0.9,0.9,0.9c0.5,0,0.9-0.4,0.9-0.9c0-0.5-0.4-0.9-0.9-0.9
				C69.9,78.3,69.5,78.7,69.5,79.2z"/>
			<path class="st0" d="M54.7,76c0,0.5,0.4,0.9,0.9,0.9c0.5,0,0.9-0.4,0.9-0.9c0-0.5-0.4-0.9-0.9-0.9C55.1,75.1,54.7,75.5,54.7,76z"
				/>
			<path class="st0" d="M68.7,76.9c0.5,0,0.9-0.4,0.9-0.9c0-0.5-0.4-0.9-0.9-0.9c-0.5,0-0.9,0.4-0.9,0.9
				C67.8,76.5,68.2,76.9,68.7,76.9z"/>
		</g>
		<path class="st0" d="M39.6,42L28,47.2l-1.1-0.4l2.1-0.9l3.1-3.1l-0.6-0.7l-7.4-4.4l8.9-0.4l2.3,3.2l3.1-0.6c0,0,2.7,1.7,2.2,2.8
			C40.4,42.2,39.6,42,39.6,42z"/>
		<g>
			<g>
				<path class="st0" d="M76.5,58.9v21.2c0,0.2,0.2,0.3,0.3,0.3h7.8v-0.3h0v-7.6c0-0.2,0.2-0.4,0.4-0.4h3.9c0.2,0,0.4,0.2,0.4,0.4
					l0,7.9h1.3c0.2,0,0.3-0.2,0.3-0.3V41.5c0-0.1,0-0.1,0-0.1c0-0.2-0.2-0.3-0.3-0.3c-0.1,0-0.1,0-0.2,0.1c0,0,0,0,0,0l-0.1,0.1
					L87,45.5l-0.6,0.8l-4.4,5.6l-3.5,4.4l-1.8,2.2l-0.1,0.1C76.5,58.7,76.5,58.8,76.5,58.9z M89.3,51c0,0.2-0.2,0.4-0.4,0.4
					c0,0,0,0,0,0c0,0,0,0,0,0h-3.4c0,0,0,0,0,0s0,0,0,0c-0.2,0-0.4-0.2-0.4-0.4c0-0.1,0-0.2,0.1-0.2l0.1-0.1
					c0.9-1.2,2.5-3.1,3.3-4.1l0.1-0.1c0.1-0.1,0.2-0.1,0.3-0.1c0.2,0,0.3,0.1,0.4,0.3V51z M84.5,67.5c0-0.2,0.2-0.3,0.3-0.3H89
					c0.2,0,0.3,0.1,0.3,0.3v2.6c0,0.2-0.2,0.3-0.3,0.3h-4.1c-0.2,0-0.3-0.2-0.3-0.3V67.5z M84.5,62.8c0-0.2,0.2-0.3,0.3-0.3H89
					c0.2,0,0.3,0.2,0.3,0.3v2.6c0,0.2-0.2,0.3-0.3,0.3h-4.1c-0.2,0-0.3-0.2-0.3-0.3V62.8z M84.5,58c0-0.2,0.2-0.3,0.3-0.3H89
					c0.2,0,0.3,0.2,0.3,0.3v2.6c0,0.2-0.2,0.3-0.3,0.3h-4.1c-0.2,0-0.3-0.2-0.3-0.3V58z M84.5,53.2c0-0.2,0.2-0.3,0.3-0.3H89
					c0.2,0,0.3,0.2,0.3,0.3v2.6c0,0.2-0.2,0.3-0.3,0.3h-4.1c-0.2,0-0.3-0.2-0.3-0.3V53.2z M83,60.6c0,0.2-0.2,0.3-0.3,0.3h-4.1
					c-0.2,0-0.3-0.2-0.3-0.3v-0.7c0,0,0-0.1,0-0.1c0,0,0,0,0,0c0,0,0,0,0,0c0,0,0,0,0-0.1c0.5-0.8,2.9-3.7,3.9-4.9l0.1-0.1
					c0.1-0.1,0.2-0.1,0.3-0.1c0.2,0,0.3,0.1,0.4,0.3V60.6z M78.6,62.4h4.1c0.2,0,0.3,0.2,0.3,0.3v2.6c0,0.2-0.2,0.3-0.3,0.3h-4.1
					c-0.2,0-0.3-0.2-0.3-0.3v-2.6C78.2,62.6,78.4,62.4,78.6,62.4z M83,70.1c0,0.2-0.2,0.3-0.3,0.3h-4.1c-0.2,0-0.3-0.2-0.3-0.3v-2.6
					c0-0.2,0.2-0.3,0.3-0.3h4.1c0.2,0,0.3,0.1,0.3,0.3V70.1z M78.2,72.4c0-0.2,0.2-0.4,0.4-0.4h4c0.2,0,0.4,0.2,0.4,0.4v2.4
					c0,0.2-0.2,0.4-0.4,0.4h-4c-0.2,0-0.4-0.2-0.4-0.4V72.4z"/>
				<path class="st0" d="M77,56.7l0.1,0.1c0.1,0.1,0.3,0.1,0.4,0l10.3-13c0.1-0.1,0.1-0.3,0-0.4l-0.1-0.1c-0.1-0.1-0.3-0.1-0.4,0
					l-10.3,13C76.8,56.4,76.9,56.6,77,56.7z"/>
			</g>
		</g>
		<g>
			<g>
				<path class="st0" d="M58.2,35.4c-1.8,1.1-2.4,3.4-1.3,5.2c1.1,1.8,3.4,2.4,5.2,1.3c1.8-1.1,2.4-3.4,1.3-5.2
					C62.3,34.9,60,34.3,58.2,35.4z"/>
				<path class="st0" d="M63.5,43.9l-0.8-1.4c-0.1-0.1-0.3-0.2-0.4-0.1c-0.1,0.1-0.2,0.3-0.1,0.4l0.8,1.4c0.1,0.1,0.3,0.2,0.4,0.1
					C63.5,44.2,63.6,44,63.5,43.9z"/>
				<path class="st0" d="M57.8,34.9c0.1-0.1,0.2-0.3,0.1-0.4l-0.8-1.4c-0.1-0.1-0.3-0.2-0.4-0.1c-0.1,0.1-0.2,0.3-0.1,0.4l0.8,1.4
					C57.5,34.9,57.7,35,57.8,34.9z"/>
				<path class="st0" d="M56.3,40.8c-0.1-0.1-0.3-0.2-0.4-0.1l-1.4,0.8c-0.1,0.1-0.2,0.3-0.1,0.4c0.1,0.1,0.3,0.2,0.4,0.1l1.4-0.8
					C56.3,41.2,56.4,41,56.3,40.8z"/>
				<path class="st0" d="M63.8,36.4c0.1,0.1,0.3,0.2,0.4,0.1l1.4-0.8c0.1-0.1,0.2-0.3,0.1-0.4c-0.1-0.1-0.3-0.2-0.4-0.1L63.9,36
					C63.7,36.1,63.7,36.3,63.8,36.4z"/>
				<path class="st0" d="M60.4,44.9l0-1.7c0-0.1-0.1-0.3-0.3-0.3c-0.2,0-0.3,0.2-0.3,0.3l0,1.7c0,0.1,0.1,0.3,0.3,0.3
					C60.3,45.2,60.4,45.1,60.4,44.9z"/>
				<path class="st0" d="M60.3,34l0-1.7c0-0.1-0.1-0.3-0.3-0.3c-0.2,0-0.3,0.2-0.3,0.3l0,1.7c0,0.1,0.1,0.3,0.3,0.3
					C60.2,34.3,60.3,34.2,60.3,34z"/>
				<path class="st0" d="M55.7,38.7c0-0.2-0.2-0.3-0.3-0.3l-1.7,0c-0.1,0-0.3,0.1-0.3,0.3c0,0.2,0.2,0.3,0.3,0.3l1.7,0
					C55.6,39,55.7,38.9,55.7,38.7z"/>
				<path class="st0" d="M64.7,38.9l1.7,0c0.1,0,0.3-0.1,0.3-0.3c0-0.2-0.2-0.3-0.3-0.3l-1.7,0c-0.1,0-0.3,0.1-0.3,0.3
					C64.4,38.8,64.5,38.9,64.7,38.9z"/>
				<path class="st0" d="M58,42.8c0.1-0.1,0-0.3-0.1-0.4c-0.1-0.1-0.3,0-0.4,0.1l-0.8,1.4c-0.1,0.1,0,0.3,0.1,0.4
					c0.1,0.1,0.3,0,0.4-0.1L58,42.8z"/>
				<path class="st0" d="M63.4,33.3c0.1-0.1,0-0.3-0.1-0.4c-0.1-0.1-0.3,0-0.4,0.1l-0.8,1.4c-0.1,0.1,0,0.3,0.1,0.4
					c0.1,0.1,0.3,0,0.4-0.1L63.4,33.3z"/>
				<path class="st0" d="M56.2,36.1l-1.4-0.8c-0.1-0.1-0.3,0-0.4,0.1c-0.1,0.1,0,0.3,0.1,0.4l1.4,0.8c0.1,0.1,0.3,0,0.4-0.1
					C56.4,36.4,56.3,36.2,56.2,36.1z"/>
				<path class="st0" d="M63.9,41.2l1.4,0.8c0.1,0.1,0.3,0,0.4-0.1c0.1-0.1,0-0.3-0.1-0.4l-1.4-0.8c-0.1-0.1-0.3,0-0.4,0.1
					C63.7,40.9,63.8,41.1,63.9,41.2z"/>
			</g>
			<path class="st0" d="M80.4,45.7L77.5,43l1.1-1.1l-4-0.9l1.2,3.9l1.1-1.1l2.9,2.7c0.2,0.2,0.5,0.2,0.7,0
				C80.6,46.3,80.6,45.9,80.4,45.7z"/>
			<path class="st0" d="M71.1,45.7l2.9,2.7L73,49.5l4,0.9l-1.2-3.9l-1.1,1.1l-2.9-2.7c-0.2-0.2-0.5-0.2-0.7,0
				C70.9,45.1,70.9,45.5,71.1,45.7z"/>
		</g>
		<g>
			<g>
				<path class="st0" d="M29.6,61.4c0-1-0.8-1.8-1.8-1.8c-1,0-1.8,0.8-1.8,1.8c0,1,0.8,1.8,1.8,1.8C28.8,63.2,29.6,62.4,29.6,61.4z"
					/>
				<path class="st0" d="M29.9,63.8c0,0-0.1,0-0.1,0h-1.9h-1.9c0,0-0.1,0-0.1,0c-1.2,0.1-2.1,1.1-2.1,2.3v0.6V67v4
					c0,0.4,0.3,0.7,0.7,0.7c0.4,0,0.7-0.3,0.7-0.7v-4.2c0-0.2,0-0.4,0.3-0.4c0.2,0,0.2,0.2,0.2,0.3v12.6c0,0.5,0.4,1,1,1
					c0.5,0,1-0.4,1-1v-7.3c0-0.1,0-0.3,0.3-0.3h0c0.2,0,0.3,0.2,0.3,0.3v7.3c0,0.5,0.4,1,1,1c0.5,0,1-0.4,1-1V66.8
					c0-0.1,0-0.3,0.2-0.3c0.3,0,0.3,0.2,0.3,0.4v4.2c0,0.4,0.3,0.7,0.7,0.7c0.4,0,0.7-0.3,0.7-0.7v-4v-0.3v-0.6
					C32.1,65,31.1,64,29.9,63.8z"/>
			</g>
			<g>
				<path class="st0" d="M42.6,61.7c0,1,0.8,1.7,1.7,1.7c1,0,1.7-0.8,1.7-1.7c0-1-0.8-1.7-1.7-1.7C43.4,60,42.6,60.7,42.6,61.7z"/>
				<path class="st0" d="M47.8,65.6c0,0-0.5-1.4-1.7-1.4h-1.8h-1.8c-1.1,0-1.7,1.4-1.7,1.4l-1.4,4.7c0,0-0.3,0.9,0.5,1.1
					c0.7,0.2,0.9-0.6,0.9-0.6l1.2-3.9c0,0,0.1-0.3,0.3-0.2c0.2,0.1,0.1,0.4,0.1,0.4l-2,7.3h1.9v5.2c0,0.5,0.4,0.9,0.9,0.9
					c0.5,0,0.9-0.4,0.9-0.9v-5.2h0.3h0.3v5.2c0,0.5,0.4,0.9,0.9,0.9c0.5,0,0.9-0.4,0.9-0.9v-5.2h1.9l-2-7.3c0,0-0.1-0.3,0.1-0.4
					c0.2-0.1,0.3,0.2,0.3,0.2l1.2,3.9c0,0,0.2,0.8,0.9,0.6c0.7-0.2,0.5-1.1,0.5-1.1L47.8,65.6z"/>
			</g>
			<g>
				<path class="st0" d="M38.5,71.4c-0.3-0.2-0.6,0.1-0.7,0.2c0,0-0.6,1.1-0.8,1.3c-0.2,0.2-0.4,0.2-0.4,0.2h-0.8H35
					c0,0-0.2,0-0.4-0.2c-0.2-0.2-0.8-1.3-0.8-1.3c0,0-0.1-0.2-0.4-0.2c-0.3,0-0.5,0.2-0.5,0.5c0,0.1,0,0.2,0,0.2l1.3,2.4
					c0,0,0.1,0.2,0.1,0.3V75h0c0,0.2-0.1,0.4-0.1,0.4l-0.6,2.5h0.7v1.9h0c0,0.4,0.3,0.6,0.6,0.6c0.4,0,0.6-0.3,0.6-0.6V78
					c0,0,0,0,0-0.1h0.2H36c0,0,0,0.1,0,0.1v1.8c0,0.4,0.3,0.6,0.6,0.6c0.4,0,0.6-0.3,0.6-0.6v-1.9H38l-0.6-2.5
					c0-0.1-0.1-0.3-0.1-0.3V75c0,0,0,0,0,0l0,0v-0.3c0-0.1,0.1-0.3,0.1-0.3l1.2-2.2c0,0,0.1-0.2,0.1-0.2
					C38.8,71.8,38.7,71.5,38.5,71.4z"/>
				<path class="st0" d="M35.8,72.2c0.7,0,1.3-0.6,1.3-1.3c0-0.7-0.6-1.3-1.3-1.3c-0.7,0-1.3,0.6-1.3,1.3
					C34.5,71.6,35.1,72.2,35.8,72.2z"/>
			</g>
			<g>
				<path class="st0" d="M16,62.2c0,1,0.8,1.7,1.7,1.7c1,0,1.7-0.8,1.7-1.7c0-0.6-0.4-1.2-0.9-1.5c0.1-0.1,0.1-0.2,0.1-0.3
					c0-0.4-0.4-0.7-0.9-0.7c-0.5,0-0.9,0.3-0.9,0.7c0,0.1,0,0.2,0.1,0.3C16.4,60.9,16,61.5,16,62.2z"/>
				<path class="st0" d="M21.2,65.6c0,0-0.5-1.3-1.6-1.3h-1.8h-1.8c-1.1,0-1.6,1.3-1.6,1.3l-1.4,4.7c0,0-0.2,0.7,0.3,1
					c0,0,0,0,0,0.1l-1.7,8.8c0,0.1,0.1,0.3,0.2,0.3c0,0,0,0,0.1,0c0.1,0,0.2-0.1,0.3-0.2l1.7-8.8c0,0,0-0.1,0-0.1
					c0.5-0.1,0.6-0.6,0.6-0.6l1.2-3.9c0,0,0.1-0.3,0.3-0.2c0.2,0.1,0.1,0.4,0.1,0.4l-2,7.3h1.9v5.2c0,0.5,0.4,0.9,0.9,0.9
					c0.5,0,0.9-0.4,0.9-0.9v-5.2h0.3H18v5.2c0,0.5,0.4,0.9,0.9,0.9c0.5,0,0.9-0.4,0.9-0.9v-5.2h1.9l-2-7.3c0,0-0.1-0.3,0.1-0.4
					c0.2-0.1,0.3,0.2,0.3,0.2l1.2,3.9c0,0,0.2,0.8,0.9,0.6c0.7-0.2,0.5-1.1,0.5-1.1L21.2,65.6z"/>
			</g>
		</g>
		<g>
			<rect x="10.5" y="83.5" class="st0" width="18.8" height="5.6"/>
			<rect x="31.1" y="83.5" class="st0" width="18.8" height="5.6"/>
			<rect x="51.6" y="83.5" class="st0" width="18.8" height="5.6"/>
			<rect x="72.2" y="83.5" class="st0" width="18.8" height="5.6"/>
			<rect x="10.6" y="91.4" class="st0" width="80.5" height="5.6"/>
		</g>
	</g>
	<path d="M90.7,103.3c0,0-0.1,0-0.1,0c-0.1,0-0.2,0.1-0.2,0.1c-2.5,1.3-10.4,4.3-17.5-2.5c-0.1-0.1-0.3-0.2-0.4-0.2
		c-0.1,0-0.3,0.1-0.4,0.2c-2.1,1.6-11.9,8.2-20.6,0.1l-0.1-0.1c-0.1-0.1-0.2-0.1-0.4-0.1c-0.1,0-0.3,0-0.3,0.1l-0.1,0.1
		c-8.7,8.1-18.5,1.5-20.6-0.1c-0.1-0.1-0.2-0.2-0.4-0.2c-0.2,0-0.3,0.1-0.4,0.2c-7.1,6.7-15,3.7-17.5,2.5c-0.1,0-0.2-0.1-0.3-0.1
		c0,0-0.1,0-0.1,0c-0.3,0-0.5,0.2-0.5,0.5v3.4c0,0.1,0.1,0.3,0.1,0.3c8.2,7.2,16.1,0.5,17.9-1.3c0.1-0.1,0.1-0.1,0.2-0.2
		c0.1-0.1,0.1-0.1,0.2-0.1c0.2,0,0.3,0.2,0.3,0.2c9.3,8.9,19.1,1.7,21.1,0l0.2-0.2c0,0,0.1-0.1,0.2-0.1c0.1,0,0.1,0,0.2,0.1l0.2,0.2
		c2,1.7,11.8,8.9,21.1,0c0,0,0,0,0,0c0.1-0.1,0.2-0.1,0.3-0.1c0.1,0,0.2,0,0.3,0.1c0.1,0,0.1,0.1,0.1,0.1c1.8,1.8,9.6,8.5,17.9,1.3
		c0.1-0.1,0.1-0.2,0.1-0.3v-3.4C91.2,103.5,90.9,103.3,90.7,103.3"/>
	<g>
		<path class="st1" d="M98.1,180.8H2.8V122h95.3V180.8z M3.8,179.8h93.3V123H3.8V179.8z"/>
	</g>
</g>
</svg>
